<mxfile host="app.diagrams.net" modified="2024-09-10T09:38:49.238Z" agent="Mozilla/5.0 (Macintosh; Intel Mac OS X 10_15_7) AppleWebKit/537.36 (KHTML, like Gecko) Chrome/127.0.0.0 Safari/537.36" etag="Il4ut1YveKIjbbOk-_Qz" version="24.6.0" type="device">
  <diagram id="QxzjDRVJoZgUF3KAE2-m" name="Page-1">
    <mxGraphModel dx="3474" dy="7264" grid="1" gridSize="10" guides="1" tooltips="1" connect="1" arrows="1" fold="1" page="1" pageScale="1" pageWidth="827" pageHeight="1169" math="0" shadow="0">
      <root>
        <mxCell id="0" />
        <mxCell id="1" parent="0" />
        <mxCell id="LFnd5nR03I8GmhmSKCZE-23" style="edgeStyle=orthogonalEdgeStyle;rounded=0;orthogonalLoop=1;jettySize=auto;html=1;entryX=0.5;entryY=0;entryDx=0;entryDy=0;" parent="1" edge="1">
          <mxGeometry relative="1" as="geometry">
            <mxPoint x="287.76666666666677" y="1345" as="sourcePoint" />
          </mxGeometry>
        </mxCell>
        <mxCell id="mVLcT5szOXLsrqpceEyi-86" value="" style="group;fontFamily=Georgia;fontSize=26;" vertex="1" connectable="0" parent="1">
          <mxGeometry x="851.0021917808218" y="-2550.0043702579665" width="277.39726027397256" height="279.70222306525034" as="geometry" />
        </mxCell>
        <mxCell id="mVLcT5szOXLsrqpceEyi-87" value="" style="strokeColor=#dddddd;shadow=1;strokeWidth=1;rounded=1;absoluteArcSize=1;arcSize=2;fontFamily=Georgia;fontSize=26;" vertex="1" parent="mVLcT5szOXLsrqpceEyi-86">
          <mxGeometry width="277.39726027397256" height="109.10971168437025" as="geometry" />
        </mxCell>
        <mxCell id="mVLcT5szOXLsrqpceEyi-88" value="" style="shape=image;verticalLabelPosition=bottom;labelBackgroundColor=default;verticalAlign=top;aspect=fixed;imageAspect=0;image=data:image/svg+xml,PHN2ZyB4bWxucz0iaHR0cDovL3d3dy53My5vcmcvMjAwMC9zdmciIGlkPSJzdmcyMiIgdmVyc2lvbj0iMS4xIiBmaWxsPSJub25lIiB2aWV3Qm94PSIwIDAgNjMxIDg3MCIgaGVpZ2h0PSI4NzAiIHdpZHRoPSI2MzEiPiYjeGE7ICA8ZGVmcyBpZD0iZGVmczI2Ii8+JiN4YTsgICYjeGE7ICA8cGF0aCBpZD0icGF0aDE4IiBmaWxsPSIjMkE2QTk1IiBkPSJNMjQ4LjAyMyAzNjkuNjU4QzI1OC41MTggMzY2LjU4OSAyNjguMjkxIDM2My40NzIgMjc2Ljk5MSAzNjAuMzkxQzI3MS44NjYgMzE5Ljc2NyAyNjkuMzA2IDI4MC4xMTcgMjc1LjM2MiAyMzkuMzc4QzI2NS45MjEgMjM2LjI2NSAyNTYuNTE4IDIzMy4yMDEgMjQ2LjkzNyAyMzAuNzAyQzI0MS40MDggMjc5LjkxNSAyNDMuMzY4IDMyNy41MDUgMjQ4LjAyMyAzNjkuNjU4WiIvPiYjeGE7ICA8cGF0aCBpZD0icGF0aDIwIiBmaWxsPSIjMkE2QTk1IiBkPSJNMjczLjc4MSAyNC44NDA5QzI5OS45MzYgOS44NzUwNSAzMzIuMDU3IDkuODYzMjUgMzU4LjIyNCAyNC44MDk5TDUzMS42MzUgMTIzLjg2NkM1NTguMTQ2IDEzOS4wMSA1NzQuNTA5IDE2Ny4yMDEgNTc0LjUwOSAxOTcuNzMzVjQwMC41OTFDNTc0LjUwOSA0MzAuOTE2IDU1OC4zNjYgNDU4Ljk0NyA1MzIuMTM5IDQ3NC4xNjhMMzU4LjU2IDU3NC45QzMzMi4yMjcgNTkwLjE4MSAyOTkuNzM1IDU5MC4yMjUgMjczLjM2MSA1NzUuMDE0TDk5LjQ1NzYgNDc0LjcxOEM3My4xMTgzIDQ1OS41MjcgNTYuODg5NiA0MzEuNDMzIDU2Ljg4OTYgNDAxLjAyN1YxOTguMjc5QzU2Ljg4OTYgMTY3Ljc2OSA3My4yMjg0IDEzOS41OTYgOTkuNzA5NSAxMjQuNDQ0TDI3My43ODEgMjQuODQwOVpNNTIwLjQ1NyAxNDIuNzFMMzQ4LjE1NiA0NC4yODgyQzMxNi40NjQgODguOTU1MiAyOTcuNDk1IDE0NC43MDkgMjg0LjYxNCAxOTcuMzAyQzI3NS4xMTIgMTkzLjI1IDI2NC4zOTkgMTg4Ljg3MiAyNTQuMjkyIDE4NS4xOTJDMjYxLjI0MiAxMzkuMjM0IDI2OS4yNTcgOTMuMTc4MiAyNzguMjA3IDQ3LjU0ODRDMjIxLjY5NCA3OS44ODUgMTYzLjExIDExMC4wNzkgMTA4LjEyOCAxNDQuOTQyQzIxMy42MiAxNzguMjk2IDMyMi43MzIgMjEyLjMzNyA0MTMuMDU2IDI3OC4zNjdDNDA3LjQ3NSAyODMuNjYgNDAxLjE0NiAyODguOTM0IDM5MS43MjggMjk2LjYyOUMzMTEuNjIzIDIyOC4wNjcgMjExLjE2MSAxOTkuOTMyIDc4Ljc5NjcgMjA3LjY4NlYzOTcuODMxQzkwLjQ5MzUgMzk4LjYzIDEwMi40NzEgMzk5LjQyNSAxMTMuOTY1IDM5OS4wNzVDMzExLjI5NSAzOTMuMDY4IDQ1MC44NTMgMjk3LjM5NSA1MjAuNDU3IDE0Mi43MVpNMTA4Ljg4MiA0NTQuODM1QzE2NC4yNSA0ODguODYyIDIyMS42ODggNTE5LjkyMyAyNzcuOTg4IDU1Mi4zOTNDMjY4Ljg3MyA1MDQuODQ5IDI2MS4xOSA0NjAuMDE4IDI1NC4xMSA0MTIuMTE5QzI2NC45ODIgNDA4LjQxOSAyNzcuNDM4IDQwMy4zMjkgMjg0LjUxMSA0MDAuNDA1QzI5Ny44NzQgNDU2LjI3NCAzMTguMDE5IDUwNy4wMjYgMzQ5LjExNiA1NTUuMDUyTDUxNi4yMjggNDU4LjA3MkM1MDIuMzc2IDQwNy42NzYgNDU5LjA2OCAzNjIuNzc3IDQyMy44MzcgMzI3LjIxN0M0MzIuODU0IDMyMS4wNjkgNDQxLjQyNiAzMTQuMzE4IDQ0OS45OCAzMDcuNTQ5QzQ4NS4zODcgMzM2LjYwNSA1MTguMjE1IDM2Ni40NTMgNTUyLjYwMiAzOTYuNjk0VjIwNS41OTZDNTM3Ljk2OSAyMTkuMDM4IDUxNS42MDEgMjM5LjM2MSA0ODkuNDQxIDI2Mi4zNzZDMzc5LjIxNSAzNTkuMzQ2IDM0MC45NDIgMzczLjE0NSAxMDguODgyIDQ1NC44MzVaIiBjbGlwLXJ1bGU9ImV2ZW5vZGQiIGZpbGwtcnVsZT0iZXZlbm9kZCIvPiYjeGE7PC9zdmc+;fontFamily=Georgia;fontSize=26;" vertex="1" parent="mVLcT5szOXLsrqpceEyi-86">
          <mxGeometry x="9.671917808219158" y="7.3048027314112085" width="103.2841098827405" height="142.39707181684904" as="geometry" />
        </mxCell>
        <UserObject label="&lt;font style=&quot;font-size: 19px;&quot;&gt;autoscaler-cluster-1&lt;/font&gt;" placeholders="1" id="mVLcT5szOXLsrqpceEyi-89">
          <mxCell style="text;html=1;strokeColor=none;fillColor=none;align=center;verticalAlign=middle;whiteSpace=wrap;overflow=hidden;fontColor=#B3B3B3;fontFamily=Georgia;fontSize=26;" vertex="1" parent="mVLcT5szOXLsrqpceEyi-86">
            <mxGeometry x="112.95999999999992" y="7.299999999999997" width="149.79" height="90" as="geometry" />
          </mxCell>
        </UserObject>
        <mxCell id="mVLcT5szOXLsrqpceEyi-90" value="" style="shape=mxgraph.gcp2.doubleRect;strokeColor=#dddddd;shadow=1;strokeWidth=1;fontSize=27;" vertex="1" parent="1">
          <mxGeometry x="1360" y="-2620" width="320" height="180" as="geometry" />
        </mxCell>
        <mxCell id="mVLcT5szOXLsrqpceEyi-91" value="&lt;font color=&quot;#000000&quot; style=&quot;font-size: 27px;&quot;&gt;Cluster-1&lt;/font&gt;&lt;br style=&quot;font-size: 27px;&quot;&gt;Kubernetes" style="sketch=0;dashed=0;connectable=0;html=1;fillColor=#5184F3;strokeColor=none;shape=mxgraph.gcp2.kubernetes_logo;part=1;labelPosition=right;verticalLabelPosition=middle;align=left;verticalAlign=middle;spacingLeft=5;fontColor=#999999;fontSize=27;" vertex="1" parent="mVLcT5szOXLsrqpceEyi-90">
          <mxGeometry width="154.64" height="150" relative="1" as="geometry">
            <mxPoint x="5" y="7.675000000000001" as="offset" />
          </mxGeometry>
        </mxCell>
        <mxCell id="mVLcT5szOXLsrqpceEyi-92" value="" style="shape=mxgraph.gcp2.doubleRect;strokeColor=#dddddd;shadow=1;strokeWidth=1;fontSize=27;" vertex="1" parent="1">
          <mxGeometry x="1360" y="-2410" width="320" height="180" as="geometry" />
        </mxCell>
        <mxCell id="mVLcT5szOXLsrqpceEyi-93" value="&lt;font color=&quot;#000000&quot; style=&quot;font-size: 27px;&quot;&gt;Cluster-N&lt;/font&gt;&lt;br style=&quot;font-size: 27px;&quot;&gt;Kubernetes" style="sketch=0;dashed=0;connectable=0;html=1;fillColor=#5184F3;strokeColor=none;shape=mxgraph.gcp2.kubernetes_logo;part=1;labelPosition=right;verticalLabelPosition=middle;align=left;verticalAlign=middle;spacingLeft=5;fontColor=#999999;fontSize=27;" vertex="1" parent="mVLcT5szOXLsrqpceEyi-92">
          <mxGeometry width="154.64" height="150" relative="1" as="geometry">
            <mxPoint x="5" y="7.675000000000001" as="offset" />
          </mxGeometry>
        </mxCell>
        <mxCell id="mVLcT5szOXLsrqpceEyi-94" value="" style="curved=1;endArrow=classic;html=1;rounded=0;entryX=1.004;entryY=0.555;entryDx=0;entryDy=0;entryPerimeter=0;exitX=-0.005;exitY=0.585;exitDx=0;exitDy=0;exitPerimeter=0;" edge="1" parent="1" source="mVLcT5szOXLsrqpceEyi-90" target="mVLcT5szOXLsrqpceEyi-87">
          <mxGeometry width="50" height="50" relative="1" as="geometry">
            <mxPoint x="1330" y="-2470" as="sourcePoint" />
            <mxPoint x="1310" y="-2480" as="targetPoint" />
            <Array as="points">
              <mxPoint x="1320" y="-2500" />
              <mxPoint x="1240" y="-2480" />
            </Array>
          </mxGeometry>
        </mxCell>
        <mxCell id="mVLcT5szOXLsrqpceEyi-95" value="" style="curved=1;endArrow=classic;html=1;rounded=0;exitX=-0.002;exitY=0.467;exitDx=0;exitDy=0;exitPerimeter=0;" edge="1" parent="1" source="mVLcT5szOXLsrqpceEyi-92" target="mVLcT5szOXLsrqpceEyi-162">
          <mxGeometry width="50" height="50" relative="1" as="geometry">
            <mxPoint x="1360" y="-2350" as="sourcePoint" />
            <mxPoint x="1132" y="-2324" as="targetPoint" />
            <Array as="points">
              <mxPoint x="1322" y="-2335" />
              <mxPoint x="1242" y="-2315" />
            </Array>
          </mxGeometry>
        </mxCell>
        <mxCell id="mVLcT5szOXLsrqpceEyi-96" value="User" style="sketch=0;pointerEvents=1;shadow=0;dashed=0;html=1;strokeColor=none;labelPosition=right;verticalLabelPosition=middle;verticalAlign=middle;outlineConnect=0;align=left;shape=mxgraph.office.users.user;fillColor=#3B8DF1;fontFamily=Georgia;fontSize=26;" vertex="1" parent="1">
          <mxGeometry x="232.95890410958907" y="-2750" width="153.12328767123287" height="166.43854324734446" as="geometry" />
        </mxCell>
        <mxCell id="mVLcT5szOXLsrqpceEyi-97" value="" style="curved=1;startArrow=none;endArrow=block;exitX=0.7357448989429269;exitY=0.9935661764705882;entryX=0.606;entryY=-0.056;entryDx=0;entryDy=0;entryPerimeter=0;fontFamily=Georgia;fontSize=26;" edge="1" parent="1" target="mVLcT5szOXLsrqpceEyi-118">
          <mxGeometry relative="1" as="geometry">
            <Array as="points">
              <mxPoint x="437.1232876712328" y="-2091.6430955993933" />
            </Array>
            <mxPoint x="370.72963327394643" y="-2137.8760242792105" as="sourcePoint" />
            <mxPoint x="437.91495226611653" y="-2045.4101669195752" as="targetPoint" />
          </mxGeometry>
        </mxCell>
        <mxCell id="mVLcT5szOXLsrqpceEyi-98" value="" style="curved=1;startArrow=none;endArrow=block;fontFamily=Georgia;fontSize=26;" edge="1" parent="1">
          <mxGeometry relative="1" as="geometry">
            <Array as="points">
              <mxPoint x="309.5205479452054" y="-1938.1497723823977" />
            </Array>
            <mxPoint x="337.2602739726026" y="-1954.7936267071323" as="sourcePoint" />
            <mxPoint x="309.5205479452054" y="-1806.8482549317146" as="targetPoint" />
          </mxGeometry>
        </mxCell>
        <mxCell id="mVLcT5szOXLsrqpceEyi-99" value="" style="curved=1;startArrow=none;endArrow=block;exitX=0.9278472148470691;exitY=0.9816176470588235;entryX=0.421;entryY=-0.042;entryDx=0;entryDy=0;entryPerimeter=0;fontFamily=Georgia;fontSize=26;" edge="1" parent="1" target="mVLcT5szOXLsrqpceEyi-144">
          <mxGeometry relative="1" as="geometry">
            <Array as="points">
              <mxPoint x="566.5753424657534" y="-1938.1497723823977" />
            </Array>
            <mxPoint x="491.3372520195635" y="-1982.533383915023" as="sourcePoint" />
            <mxPoint x="565.8588197806157" y="-1825.341426403642" as="targetPoint" />
          </mxGeometry>
        </mxCell>
        <mxCell id="mVLcT5szOXLsrqpceEyi-100" value="" style="curved=1;startArrow=none;endArrow=block;exitX=0.10089970284003276;exitY=0.9990808823529411;entryX=0.474;entryY=0.031;entryDx=0;entryDy=0;entryPerimeter=0;fontFamily=Georgia;fontSize=26;" edge="1" parent="1" target="mVLcT5szOXLsrqpceEyi-127">
          <mxGeometry relative="1" as="geometry">
            <Array as="points">
              <mxPoint x="-134.31506849315065" y="-1782.8071320182094" />
            </Array>
            <mxPoint x="-13.52342036411369" y="-1799.450986342944" as="sourcePoint" />
            <mxPoint x="-133.76536383058942" y="-1736.5742033383915" as="targetPoint" />
          </mxGeometry>
        </mxCell>
        <mxCell id="mVLcT5szOXLsrqpceEyi-101" value="" style="curved=1;startArrow=none;endArrow=block;exitX=0.579795815942292;exitY=0.9990808823529411;entryX=0.333;entryY=0;entryDx=0;entryDy=0;entryPerimeter=0;fontFamily=Georgia;fontSize=26;" edge="1" parent="1" target="mVLcT5szOXLsrqpceEyi-131">
          <mxGeometry relative="1" as="geometry">
            <Array as="points">
              <mxPoint x="93.15068493150682" y="-1782.8071320182094" />
            </Array>
            <mxPoint x="77.86444124343711" y="-1799.450986342944" as="sourcePoint" />
            <mxPoint x="93.22448787231338" y="-1736.5742033383915" as="targetPoint" />
          </mxGeometry>
        </mxCell>
        <mxCell id="mVLcT5szOXLsrqpceEyi-102" value="" style="group;fontFamily=Georgia;fontSize=26;" vertex="1" connectable="0" parent="1">
          <mxGeometry x="32.1232876712329" y="-2639.040971168437" width="277.39726027397256" height="109.10971168437025" as="geometry" />
        </mxCell>
        <mxCell id="mVLcT5szOXLsrqpceEyi-103" value="" style="strokeColor=#dddddd;shadow=1;strokeWidth=1;rounded=1;absoluteArcSize=1;arcSize=2;fontFamily=Georgia;fontSize=26;" vertex="1" parent="mVLcT5szOXLsrqpceEyi-102">
          <mxGeometry width="277.39726027397256" height="109.10971168437025" as="geometry" />
        </mxCell>
        <UserObject label="&lt;font style=&quot;font-size: 26px;&quot;&gt;InputManifest&lt;/font&gt;" placeholders="1" id="mVLcT5szOXLsrqpceEyi-104">
          <mxCell style="text;html=1;strokeColor=none;fillColor=none;align=center;verticalAlign=middle;whiteSpace=wrap;overflow=hidden;fontColor=#B3B3B3;fontFamily=Georgia;fontSize=26;" vertex="1" parent="mVLcT5szOXLsrqpceEyi-102">
            <mxGeometry x="110.95890410958901" y="36.98634294385432" width="149.79452054794518" height="36.98634294385432" as="geometry" />
          </mxCell>
        </UserObject>
        <mxCell id="mVLcT5szOXLsrqpceEyi-105" value="" style="editableCssRules=.*;html=1;shape=image;verticalLabelPosition=bottom;labelBackgroundColor=#ffffff;verticalAlign=top;aspect=fixed;imageAspect=0;image=data:image/svg+xml,PHN2ZyB4bWxucz0iaHR0cDovL3d3dy53My5vcmcvMjAwMC9zdmciIHhtbG5zOnY9Imh0dHBzOi8vdmVjdGEuaW8vbmFubyIgd2lkdGg9IjMyOS45MjU5OTcyMzE3OTM4IiBoZWlnaHQ9IjM3OC4yODQ5OTAzMTEyNzg4IiB2aWV3Qm94PSIwIDAgODcuMjkyOTk5MjY3NTc4MTIgMTAwLjA4Nzk5NzQzNjUyMzQ0Ij4mI3hhOzxzdHlsZSB0eXBlPSJ0ZXh0L2NzcyI+JiN4YTsJLnN0MHtmaWxsOiNhZWNiZmE7fSYjeGE7CS5zdDF7ZmlsbDojNjY5ZGY2O30mI3hhOwkuc3Qye2ZpbGw6IzQyODVmNDt9JiN4YTs8L3N0eWxlPiYjeGE7CTxwYXRoIGNsYXNzPSJzdDAiIGQ9Ik00My43NTEgMEwwIDI1LjQ2NXYyLjU4OCA0Ni45Mmw0My43NTIgMjUuMTE1IDQzLjU0MS0yNS4xMjFWMjUuNDczem0yLjQzOCAxMS44NTNsMzIuMTAzIDE4Ljc4MlY2OS43N0w0My43MzkgODkuNzA1IDkgNjkuNzYyVjMwLjY0MWwzMi4xOS0xOC43MzZ2MTQuMTU0TDI0LjUwMyAzNi4xNTNsMTkuMTcyIDExLjUwMiAxOC44ODYtMTEuNTU0LTE2LjM3Mi0xMC4wMjR6Ii8+JiN4YTsJPHBhdGggY2xhc3M9InN0MSIgZD0iTTIyLjAyNSA0MC40OTZsLjE2NiAxOS4xNDMtMTMuMjQ3IDcuMzN2Mi43NDJsMi42MzcgMS41MTQgMTIuNjQ4LTYuOTk5IDE2Ljk2MSAxMC42MDJWNTEuOTkzeiIvPiYjeGE7CTxwYXRoIGNsYXNzPSJzdDIiIGQ9Ik02NS4zNDQgNDAuMjZMNDYuMTg5IDUxLjk3OXYyMi44NDdsMTYuODk5LTEwLjU3NiAxMi41MzkgNi45NzQgMi42MDktMS41MDV2LTIuNzY1bC0xMi43ODQtNy4xMTJ6Ii8+JiN4YTs8L3N2Zz4=;fontFamily=Georgia;fontSize=26;" vertex="1" parent="mVLcT5szOXLsrqpceEyi-102">
          <mxGeometry x="18.493150684931507" y="21.74796965098634" width="57.328691250939215" height="67.4444312877985" as="geometry" />
        </mxCell>
        <mxCell id="mVLcT5szOXLsrqpceEyi-106" value="" style="group;fontFamily=Georgia;fontSize=26;" vertex="1" connectable="0" parent="1">
          <mxGeometry x="4.383561643835492" y="-2450.41062215478" width="332.8767123287671" height="109.10971168437025" as="geometry" />
        </mxCell>
        <mxCell id="mVLcT5szOXLsrqpceEyi-107" value="" style="strokeColor=#dddddd;shadow=1;strokeWidth=1;rounded=1;absoluteArcSize=1;arcSize=2;fontFamily=Georgia;fontSize=26;" vertex="1" parent="mVLcT5szOXLsrqpceEyi-106">
          <mxGeometry width="332.8767123287671" height="109.10971168437025" as="geometry" />
        </mxCell>
        <mxCell id="mVLcT5szOXLsrqpceEyi-108" value="" style="sketch=0;html=1;dashed=0;whitespace=wrap;fillColor=#2875E2;strokeColor=#ffffff;points=[[0.005,0.63,0],[0.1,0.2,0],[0.9,0.2,0],[0.5,0,0],[0.995,0.63,0],[0.72,0.99,0],[0.5,1,0],[0.28,0.99,0]];verticalLabelPosition=bottom;align=center;verticalAlign=top;shape=mxgraph.kubernetes.icon;prIcon=api;fontFamily=Georgia;fontSize=26;" vertex="1" parent="mVLcT5szOXLsrqpceEyi-106">
          <mxGeometry x="9.246575342465754" y="11.095902883156297" width="92.46575342465754" height="88.76722306525038" as="geometry" />
        </mxCell>
        <UserObject label="Claudie-operator" placeholders="1" id="mVLcT5szOXLsrqpceEyi-109">
          <mxCell style="text;html=1;strokeColor=none;fillColor=none;align=center;verticalAlign=middle;whiteSpace=wrap;overflow=hidden;fontColor=#B3B3B3;fontFamily=Georgia;fontSize=26;" vertex="1" parent="mVLcT5szOXLsrqpceEyi-106">
            <mxGeometry x="110.95890410958904" y="36.98634294385432" width="203.42465753424656" height="36.98634294385432" as="geometry" />
          </mxCell>
        </UserObject>
        <mxCell id="mVLcT5szOXLsrqpceEyi-110" style="edgeStyle=orthogonalEdgeStyle;rounded=0;orthogonalLoop=1;jettySize=auto;html=1;entryX=0.5;entryY=0;entryDx=0;entryDy=0;fontFamily=Georgia;fontSize=26;" edge="1" parent="1" source="mVLcT5szOXLsrqpceEyi-103" target="mVLcT5szOXLsrqpceEyi-107">
          <mxGeometry relative="1" as="geometry" />
        </mxCell>
        <mxCell id="mVLcT5szOXLsrqpceEyi-111" value="" style="group;fontFamily=Georgia;fontSize=26;" vertex="1" connectable="0" parent="1">
          <mxGeometry x="170.8219178082191" y="-2250.6843702579667" width="277.39726027397256" height="149.70222306525037" as="geometry" />
        </mxCell>
        <mxCell id="mVLcT5szOXLsrqpceEyi-112" value="" style="strokeColor=#dddddd;shadow=1;strokeWidth=1;rounded=1;absoluteArcSize=1;arcSize=2;fontFamily=Georgia;fontSize=26;" vertex="1" parent="mVLcT5szOXLsrqpceEyi-111">
          <mxGeometry width="277.39726027397256" height="109.10971168437025" as="geometry" />
        </mxCell>
        <UserObject label="Manager" placeholders="1" id="mVLcT5szOXLsrqpceEyi-113">
          <mxCell style="text;html=1;strokeColor=none;fillColor=none;align=center;verticalAlign=middle;whiteSpace=wrap;overflow=hidden;fontColor=#B3B3B3;fontFamily=Georgia;fontSize=26;" vertex="1" parent="mVLcT5szOXLsrqpceEyi-111">
            <mxGeometry x="110.95890410958901" y="36.98634294385432" width="149.79452054794518" height="36.98634294385432" as="geometry" />
          </mxCell>
        </UserObject>
        <mxCell id="mVLcT5szOXLsrqpceEyi-114" value="" style="shape=image;verticalLabelPosition=bottom;labelBackgroundColor=default;verticalAlign=top;aspect=fixed;imageAspect=0;image=data:image/svg+xml,PHN2ZyB4bWxucz0iaHR0cDovL3d3dy53My5vcmcvMjAwMC9zdmciIGlkPSJzdmcyMiIgdmVyc2lvbj0iMS4xIiBmaWxsPSJub25lIiB2aWV3Qm94PSIwIDAgNjMxIDg3MCIgaGVpZ2h0PSI4NzAiIHdpZHRoPSI2MzEiPiYjeGE7ICA8ZGVmcyBpZD0iZGVmczI2Ii8+JiN4YTsgICYjeGE7ICA8cGF0aCBpZD0icGF0aDE4IiBmaWxsPSIjMkE2QTk1IiBkPSJNMjQ4LjAyMyAzNjkuNjU4QzI1OC41MTggMzY2LjU4OSAyNjguMjkxIDM2My40NzIgMjc2Ljk5MSAzNjAuMzkxQzI3MS44NjYgMzE5Ljc2NyAyNjkuMzA2IDI4MC4xMTcgMjc1LjM2MiAyMzkuMzc4QzI2NS45MjEgMjM2LjI2NSAyNTYuNTE4IDIzMy4yMDEgMjQ2LjkzNyAyMzAuNzAyQzI0MS40MDggMjc5LjkxNSAyNDMuMzY4IDMyNy41MDUgMjQ4LjAyMyAzNjkuNjU4WiIvPiYjeGE7ICA8cGF0aCBpZD0icGF0aDIwIiBmaWxsPSIjMkE2QTk1IiBkPSJNMjczLjc4MSAyNC44NDA5QzI5OS45MzYgOS44NzUwNSAzMzIuMDU3IDkuODYzMjUgMzU4LjIyNCAyNC44MDk5TDUzMS42MzUgMTIzLjg2NkM1NTguMTQ2IDEzOS4wMSA1NzQuNTA5IDE2Ny4yMDEgNTc0LjUwOSAxOTcuNzMzVjQwMC41OTFDNTc0LjUwOSA0MzAuOTE2IDU1OC4zNjYgNDU4Ljk0NyA1MzIuMTM5IDQ3NC4xNjhMMzU4LjU2IDU3NC45QzMzMi4yMjcgNTkwLjE4MSAyOTkuNzM1IDU5MC4yMjUgMjczLjM2MSA1NzUuMDE0TDk5LjQ1NzYgNDc0LjcxOEM3My4xMTgzIDQ1OS41MjcgNTYuODg5NiA0MzEuNDMzIDU2Ljg4OTYgNDAxLjAyN1YxOTguMjc5QzU2Ljg4OTYgMTY3Ljc2OSA3My4yMjg0IDEzOS41OTYgOTkuNzA5NSAxMjQuNDQ0TDI3My43ODEgMjQuODQwOVpNNTIwLjQ1NyAxNDIuNzFMMzQ4LjE1NiA0NC4yODgyQzMxNi40NjQgODguOTU1MiAyOTcuNDk1IDE0NC43MDkgMjg0LjYxNCAxOTcuMzAyQzI3NS4xMTIgMTkzLjI1IDI2NC4zOTkgMTg4Ljg3MiAyNTQuMjkyIDE4NS4xOTJDMjYxLjI0MiAxMzkuMjM0IDI2OS4yNTcgOTMuMTc4MiAyNzguMjA3IDQ3LjU0ODRDMjIxLjY5NCA3OS44ODUgMTYzLjExIDExMC4wNzkgMTA4LjEyOCAxNDQuOTQyQzIxMy42MiAxNzguMjk2IDMyMi43MzIgMjEyLjMzNyA0MTMuMDU2IDI3OC4zNjdDNDA3LjQ3NSAyODMuNjYgNDAxLjE0NiAyODguOTM0IDM5MS43MjggMjk2LjYyOUMzMTEuNjIzIDIyOC4wNjcgMjExLjE2MSAxOTkuOTMyIDc4Ljc5NjcgMjA3LjY4NlYzOTcuODMxQzkwLjQ5MzUgMzk4LjYzIDEwMi40NzEgMzk5LjQyNSAxMTMuOTY1IDM5OS4wNzVDMzExLjI5NSAzOTMuMDY4IDQ1MC44NTMgMjk3LjM5NSA1MjAuNDU3IDE0Mi43MVpNMTA4Ljg4MiA0NTQuODM1QzE2NC4yNSA0ODguODYyIDIyMS42ODggNTE5LjkyMyAyNzcuOTg4IDU1Mi4zOTNDMjY4Ljg3MyA1MDQuODQ5IDI2MS4xOSA0NjAuMDE4IDI1NC4xMSA0MTIuMTE5QzI2NC45ODIgNDA4LjQxOSAyNzcuNDM4IDQwMy4zMjkgMjg0LjUxMSA0MDAuNDA1QzI5Ny44NzQgNDU2LjI3NCAzMTguMDE5IDUwNy4wMjYgMzQ5LjExNiA1NTUuMDUyTDUxNi4yMjggNDU4LjA3MkM1MDIuMzc2IDQwNy42NzYgNDU5LjA2OCAzNjIuNzc3IDQyMy44MzcgMzI3LjIxN0M0MzIuODU0IDMyMS4wNjkgNDQxLjQyNiAzMTQuMzE4IDQ0OS45OCAzMDcuNTQ5QzQ4NS4zODcgMzM2LjYwNSA1MTguMjE1IDM2Ni40NTMgNTUyLjYwMiAzOTYuNjk0VjIwNS41OTZDNTM3Ljk2OSAyMTkuMDM4IDUxNS42MDEgMjM5LjM2MSA0ODkuNDQxIDI2Mi4zNzZDMzc5LjIxNSAzNTkuMzQ2IDM0MC45NDIgMzczLjE0NSAxMDguODgyIDQ1NC44MzVaIiBjbGlwLXJ1bGU9ImV2ZW5vZGQiIGZpbGwtcnVsZT0iZXZlbm9kZCIvPiYjeGE7PC9zdmc+;fontFamily=Georgia;fontSize=26;" vertex="1" parent="mVLcT5szOXLsrqpceEyi-111">
          <mxGeometry x="9.671917808219158" y="7.3048027314112085" width="103.2841098827405" height="142.39707181684904" as="geometry" />
        </mxCell>
        <mxCell id="mVLcT5szOXLsrqpceEyi-115" value="" style="curved=1;endArrow=classic;html=1;rounded=0;exitX=0.5;exitY=1;exitDx=0;exitDy=0;entryX=0.5;entryY=0;entryDx=0;entryDy=0;fontFamily=Georgia;fontSize=26;" edge="1" parent="1" source="mVLcT5szOXLsrqpceEyi-107" target="mVLcT5szOXLsrqpceEyi-112">
          <mxGeometry width="50" height="50" relative="1" as="geometry">
            <mxPoint x="485.20547945205465" y="-2357.9447647951442" as="sourcePoint" />
            <mxPoint x="577.6712328767121" y="-2450.41062215478" as="targetPoint" />
            <Array as="points">
              <mxPoint x="189.31506849315065" y="-2306.1638846737483" />
              <mxPoint x="244.79452054794513" y="-2306.1638846737483" />
              <mxPoint x="281.7808219178082" y="-2287.670713201821" />
            </Array>
          </mxGeometry>
        </mxCell>
        <mxCell id="mVLcT5szOXLsrqpceEyi-116" style="edgeStyle=orthogonalEdgeStyle;rounded=0;orthogonalLoop=1;jettySize=auto;html=1;exitX=0;exitY=0.5;exitDx=0;exitDy=0;entryX=1;entryY=0.5;entryDx=0;entryDy=0;fontFamily=Georgia;fontSize=26;" edge="1" parent="1" source="mVLcT5szOXLsrqpceEyi-112" target="mVLcT5szOXLsrqpceEyi-123">
          <mxGeometry relative="1" as="geometry" />
        </mxCell>
        <mxCell id="mVLcT5szOXLsrqpceEyi-117" value="" style="group;fontFamily=Georgia;fontSize=26;" vertex="1" connectable="0" parent="1">
          <mxGeometry x="270.68493150684924" y="-2047.259484066768" width="277.39726027397256" height="149.70222306525042" as="geometry" />
        </mxCell>
        <mxCell id="mVLcT5szOXLsrqpceEyi-118" value="" style="strokeColor=#dddddd;shadow=1;strokeWidth=1;rounded=1;absoluteArcSize=1;arcSize=2;fontFamily=Georgia;fontSize=26;" vertex="1" parent="mVLcT5szOXLsrqpceEyi-117">
          <mxGeometry width="277.39726027397256" height="109.10971168437025" as="geometry" />
        </mxCell>
        <UserObject label="Builder" placeholders="1" id="mVLcT5szOXLsrqpceEyi-119">
          <mxCell style="text;html=1;strokeColor=none;fillColor=none;align=center;verticalAlign=middle;whiteSpace=wrap;overflow=hidden;fontColor=#B3B3B3;fontFamily=Georgia;fontSize=26;" vertex="1" parent="mVLcT5szOXLsrqpceEyi-117">
            <mxGeometry x="110.95890410958901" y="36.986342943854275" width="149.79452054794518" height="36.98634294385432" as="geometry" />
          </mxCell>
        </UserObject>
        <mxCell id="mVLcT5szOXLsrqpceEyi-120" value="" style="shape=image;verticalLabelPosition=bottom;labelBackgroundColor=default;verticalAlign=top;aspect=fixed;imageAspect=0;image=data:image/svg+xml,PHN2ZyB4bWxucz0iaHR0cDovL3d3dy53My5vcmcvMjAwMC9zdmciIGlkPSJzdmcyMiIgdmVyc2lvbj0iMS4xIiBmaWxsPSJub25lIiB2aWV3Qm94PSIwIDAgNjMxIDg3MCIgaGVpZ2h0PSI4NzAiIHdpZHRoPSI2MzEiPiYjeGE7ICA8ZGVmcyBpZD0iZGVmczI2Ii8+JiN4YTsgICYjeGE7ICA8cGF0aCBpZD0icGF0aDE4IiBmaWxsPSIjMkE2QTk1IiBkPSJNMjQ4LjAyMyAzNjkuNjU4QzI1OC41MTggMzY2LjU4OSAyNjguMjkxIDM2My40NzIgMjc2Ljk5MSAzNjAuMzkxQzI3MS44NjYgMzE5Ljc2NyAyNjkuMzA2IDI4MC4xMTcgMjc1LjM2MiAyMzkuMzc4QzI2NS45MjEgMjM2LjI2NSAyNTYuNTE4IDIzMy4yMDEgMjQ2LjkzNyAyMzAuNzAyQzI0MS40MDggMjc5LjkxNSAyNDMuMzY4IDMyNy41MDUgMjQ4LjAyMyAzNjkuNjU4WiIvPiYjeGE7ICA8cGF0aCBpZD0icGF0aDIwIiBmaWxsPSIjMkE2QTk1IiBkPSJNMjczLjc4MSAyNC44NDA5QzI5OS45MzYgOS44NzUwNSAzMzIuMDU3IDkuODYzMjUgMzU4LjIyNCAyNC44MDk5TDUzMS42MzUgMTIzLjg2NkM1NTguMTQ2IDEzOS4wMSA1NzQuNTA5IDE2Ny4yMDEgNTc0LjUwOSAxOTcuNzMzVjQwMC41OTFDNTc0LjUwOSA0MzAuOTE2IDU1OC4zNjYgNDU4Ljk0NyA1MzIuMTM5IDQ3NC4xNjhMMzU4LjU2IDU3NC45QzMzMi4yMjcgNTkwLjE4MSAyOTkuNzM1IDU5MC4yMjUgMjczLjM2MSA1NzUuMDE0TDk5LjQ1NzYgNDc0LjcxOEM3My4xMTgzIDQ1OS41MjcgNTYuODg5NiA0MzEuNDMzIDU2Ljg4OTYgNDAxLjAyN1YxOTguMjc5QzU2Ljg4OTYgMTY3Ljc2OSA3My4yMjg0IDEzOS41OTYgOTkuNzA5NSAxMjQuNDQ0TDI3My43ODEgMjQuODQwOVpNNTIwLjQ1NyAxNDIuNzFMMzQ4LjE1NiA0NC4yODgyQzMxNi40NjQgODguOTU1MiAyOTcuNDk1IDE0NC43MDkgMjg0LjYxNCAxOTcuMzAyQzI3NS4xMTIgMTkzLjI1IDI2NC4zOTkgMTg4Ljg3MiAyNTQuMjkyIDE4NS4xOTJDMjYxLjI0MiAxMzkuMjM0IDI2OS4yNTcgOTMuMTc4MiAyNzguMjA3IDQ3LjU0ODRDMjIxLjY5NCA3OS44ODUgMTYzLjExIDExMC4wNzkgMTA4LjEyOCAxNDQuOTQyQzIxMy42MiAxNzguMjk2IDMyMi43MzIgMjEyLjMzNyA0MTMuMDU2IDI3OC4zNjdDNDA3LjQ3NSAyODMuNjYgNDAxLjE0NiAyODguOTM0IDM5MS43MjggMjk2LjYyOUMzMTEuNjIzIDIyOC4wNjcgMjExLjE2MSAxOTkuOTMyIDc4Ljc5NjcgMjA3LjY4NlYzOTcuODMxQzkwLjQ5MzUgMzk4LjYzIDEwMi40NzEgMzk5LjQyNSAxMTMuOTY1IDM5OS4wNzVDMzExLjI5NSAzOTMuMDY4IDQ1MC44NTMgMjk3LjM5NSA1MjAuNDU3IDE0Mi43MVpNMTA4Ljg4MiA0NTQuODM1QzE2NC4yNSA0ODguODYyIDIyMS42ODggNTE5LjkyMyAyNzcuOTg4IDU1Mi4zOTNDMjY4Ljg3MyA1MDQuODQ5IDI2MS4xOSA0NjAuMDE4IDI1NC4xMSA0MTIuMTE5QzI2NC45ODIgNDA4LjQxOSAyNzcuNDM4IDQwMy4zMjkgMjg0LjUxMSA0MDAuNDA1QzI5Ny44NzQgNDU2LjI3NCAzMTguMDE5IDUwNy4wMjYgMzQ5LjExNiA1NTUuMDUyTDUxNi4yMjggNDU4LjA3MkM1MDIuMzc2IDQwNy42NzYgNDU5LjA2OCAzNjIuNzc3IDQyMy44MzcgMzI3LjIxN0M0MzIuODU0IDMyMS4wNjkgNDQxLjQyNiAzMTQuMzE4IDQ0OS45OCAzMDcuNTQ5QzQ4NS4zODcgMzM2LjYwNSA1MTguMjE1IDM2Ni40NTMgNTUyLjYwMiAzOTYuNjk0VjIwNS41OTZDNTM3Ljk2OSAyMTkuMDM4IDUxNS42MDEgMjM5LjM2MSA0ODkuNDQxIDI2Mi4zNzZDMzc5LjIxNSAzNTkuMzQ2IDM0MC45NDIgMzczLjE0NSAxMDguODgyIDQ1NC44MzVaIiBjbGlwLXJ1bGU9ImV2ZW5vZGQiIGZpbGwtcnVsZT0iZXZlbm9kZCIvPiYjeGE7PC9zdmc+;fontFamily=Georgia;fontSize=26;" vertex="1" parent="mVLcT5szOXLsrqpceEyi-117">
          <mxGeometry x="9.671917808219158" y="7.3048027314112085" width="103.2841098827405" height="142.39707181684904" as="geometry" />
        </mxCell>
        <mxCell id="mVLcT5szOXLsrqpceEyi-121" value="" style="group;fontFamily=Georgia;fontSize=26;" vertex="1" connectable="0" parent="1">
          <mxGeometry x="-106.57534246575347" y="-2250.6843702579667" width="277.39726027397256" height="109.10971168437025" as="geometry" />
        </mxCell>
        <mxCell id="mVLcT5szOXLsrqpceEyi-122" value="" style="group;fontFamily=Georgia;fontSize=26;" vertex="1" connectable="0" parent="mVLcT5szOXLsrqpceEyi-121">
          <mxGeometry x="-94.31506849315068" width="277.39726027397256" height="109.10971168437025" as="geometry" />
        </mxCell>
        <mxCell id="mVLcT5szOXLsrqpceEyi-123" value="" style="strokeColor=#dddddd;shadow=1;strokeWidth=1;rounded=1;absoluteArcSize=1;arcSize=2;fontFamily=Georgia;fontSize=26;" vertex="1" parent="mVLcT5szOXLsrqpceEyi-122">
          <mxGeometry width="277.39726027397256" height="109.10971168437025" as="geometry" />
        </mxCell>
        <UserObject label="MongoDB" placeholders="1" id="mVLcT5szOXLsrqpceEyi-124">
          <mxCell style="text;html=1;strokeColor=none;fillColor=none;align=center;verticalAlign=middle;whiteSpace=wrap;overflow=hidden;fontColor=#B3B3B3;fontFamily=Georgia;fontSize=26;" vertex="1" parent="mVLcT5szOXLsrqpceEyi-122">
            <mxGeometry x="110.95890410958901" y="36.98634294385432" width="149.79452054794518" height="36.98634294385432" as="geometry" />
          </mxCell>
        </UserObject>
        <mxCell id="mVLcT5szOXLsrqpceEyi-125" value="" style="sketch=0;html=1;aspect=fixed;strokeColor=none;shadow=0;fillColor=#3B8DF1;verticalAlign=top;labelPosition=center;verticalLabelPosition=bottom;shape=mxgraph.gcp2.database_2;fontFamily=Georgia;fontSize=26;" vertex="1" parent="mVLcT5szOXLsrqpceEyi-122">
          <mxGeometry x="22.191780821917806" y="9.209599393019708" width="70.75470087938498" height="90.70878405995383" as="geometry" />
        </mxCell>
        <mxCell id="mVLcT5szOXLsrqpceEyi-126" value="" style="group;fontFamily=Georgia;fontSize=26;" vertex="1" connectable="0" parent="1">
          <mxGeometry x="-310" y="-1640.4097116843702" width="277.39726027397256" height="109.10971168437025" as="geometry" />
        </mxCell>
        <mxCell id="mVLcT5szOXLsrqpceEyi-127" value="" style="strokeColor=#dddddd;shadow=1;strokeWidth=1;rounded=1;absoluteArcSize=1;arcSize=2;fontFamily=Georgia;fontSize=26;" vertex="1" parent="mVLcT5szOXLsrqpceEyi-126">
          <mxGeometry width="277.39726027397256" height="109.10971168437025" as="geometry" />
        </mxCell>
        <UserObject label="MinIO" placeholders="1" id="mVLcT5szOXLsrqpceEyi-128">
          <mxCell style="text;html=1;strokeColor=none;fillColor=none;align=center;verticalAlign=middle;whiteSpace=wrap;overflow=hidden;fontColor=#B3B3B3;fontFamily=Georgia;fontSize=26;" vertex="1" parent="mVLcT5szOXLsrqpceEyi-126">
            <mxGeometry x="110.95890410958901" y="36.98634294385432" width="92.46575342465754" height="36.98634294385432" as="geometry" />
          </mxCell>
        </UserObject>
        <mxCell id="mVLcT5szOXLsrqpceEyi-129" value="" style="outlineConnect=0;dashed=0;verticalLabelPosition=bottom;verticalAlign=top;align=center;html=1;shape=mxgraph.aws3.bucket_with_objects;fillColor=#E05243;gradientColor=none;fontFamily=Georgia;fontSize=26;" vertex="1" parent="mVLcT5szOXLsrqpceEyi-126">
          <mxGeometry x="18.493150684931507" y="17.106183611532625" width="74.87876712328766" height="76.74666160849772" as="geometry" />
        </mxCell>
        <mxCell id="mVLcT5szOXLsrqpceEyi-130" value="" style="group;fontFamily=Georgia;fontSize=26;" vertex="1" connectable="0" parent="1">
          <mxGeometry x="-14.109589041095887" y="-1640.4097116843702" width="277.39726027397256" height="109.10971168437025" as="geometry" />
        </mxCell>
        <mxCell id="mVLcT5szOXLsrqpceEyi-131" value="" style="strokeColor=#dddddd;shadow=1;strokeWidth=1;rounded=1;absoluteArcSize=1;arcSize=2;fontFamily=Georgia;fontSize=26;" vertex="1" parent="mVLcT5szOXLsrqpceEyi-130">
          <mxGeometry width="277.39726027397256" height="109.10971168437025" as="geometry" />
        </mxCell>
        <UserObject label="DynamoDB" placeholders="1" id="mVLcT5szOXLsrqpceEyi-132">
          <mxCell style="text;html=1;strokeColor=none;fillColor=none;align=center;verticalAlign=middle;whiteSpace=wrap;overflow=hidden;fontColor=#B3B3B3;fontFamily=Georgia;fontSize=26;" vertex="1" parent="mVLcT5szOXLsrqpceEyi-130">
            <mxGeometry x="110.95890410958901" y="36.98634294385432" width="149.79452054794518" height="36.98634294385432" as="geometry" />
          </mxCell>
        </UserObject>
        <mxCell id="mVLcT5szOXLsrqpceEyi-133" value="" style="sketch=0;html=1;aspect=fixed;strokeColor=none;shadow=0;fillColor=#3B8DF1;verticalAlign=top;labelPosition=center;verticalLabelPosition=bottom;shape=mxgraph.gcp2.database_2;fontFamily=Georgia;fontSize=26;" vertex="1" parent="mVLcT5szOXLsrqpceEyi-130">
          <mxGeometry x="22.191780821917806" y="9.209599393019708" width="70.75470087938498" height="90.70878405995383" as="geometry" />
        </mxCell>
        <mxCell id="mVLcT5szOXLsrqpceEyi-134" value="" style="group;fontFamily=Georgia;fontSize=26;" vertex="1" connectable="0" parent="1">
          <mxGeometry x="170.8219178082191" y="-1806.8482549317146" width="277.39726027397256" height="149.70222306525037" as="geometry" />
        </mxCell>
        <mxCell id="mVLcT5szOXLsrqpceEyi-135" value="" style="strokeColor=#dddddd;shadow=1;strokeWidth=1;rounded=1;absoluteArcSize=1;arcSize=2;fontFamily=Georgia;fontSize=26;" vertex="1" parent="mVLcT5szOXLsrqpceEyi-134">
          <mxGeometry width="277.39726027397256" height="109.10971168437025" as="geometry" />
        </mxCell>
        <UserObject label="Ansibler" placeholders="1" id="mVLcT5szOXLsrqpceEyi-136">
          <mxCell style="text;html=1;strokeColor=none;fillColor=none;align=center;verticalAlign=middle;whiteSpace=wrap;overflow=hidden;fontColor=#B3B3B3;fontFamily=Georgia;fontSize=26;" vertex="1" parent="mVLcT5szOXLsrqpceEyi-134">
            <mxGeometry x="110.95890410958901" y="36.98634294385432" width="149.79452054794518" height="36.98634294385432" as="geometry" />
          </mxCell>
        </UserObject>
        <mxCell id="mVLcT5szOXLsrqpceEyi-137" value="" style="shape=image;verticalLabelPosition=bottom;labelBackgroundColor=default;verticalAlign=top;aspect=fixed;imageAspect=0;image=data:image/svg+xml,PHN2ZyB4bWxucz0iaHR0cDovL3d3dy53My5vcmcvMjAwMC9zdmciIGlkPSJzdmcyMiIgdmVyc2lvbj0iMS4xIiBmaWxsPSJub25lIiB2aWV3Qm94PSIwIDAgNjMxIDg3MCIgaGVpZ2h0PSI4NzAiIHdpZHRoPSI2MzEiPiYjeGE7ICA8ZGVmcyBpZD0iZGVmczI2Ii8+JiN4YTsgICYjeGE7ICA8cGF0aCBpZD0icGF0aDE4IiBmaWxsPSIjMkE2QTk1IiBkPSJNMjQ4LjAyMyAzNjkuNjU4QzI1OC41MTggMzY2LjU4OSAyNjguMjkxIDM2My40NzIgMjc2Ljk5MSAzNjAuMzkxQzI3MS44NjYgMzE5Ljc2NyAyNjkuMzA2IDI4MC4xMTcgMjc1LjM2MiAyMzkuMzc4QzI2NS45MjEgMjM2LjI2NSAyNTYuNTE4IDIzMy4yMDEgMjQ2LjkzNyAyMzAuNzAyQzI0MS40MDggMjc5LjkxNSAyNDMuMzY4IDMyNy41MDUgMjQ4LjAyMyAzNjkuNjU4WiIvPiYjeGE7ICA8cGF0aCBpZD0icGF0aDIwIiBmaWxsPSIjMkE2QTk1IiBkPSJNMjczLjc4MSAyNC44NDA5QzI5OS45MzYgOS44NzUwNSAzMzIuMDU3IDkuODYzMjUgMzU4LjIyNCAyNC44MDk5TDUzMS42MzUgMTIzLjg2NkM1NTguMTQ2IDEzOS4wMSA1NzQuNTA5IDE2Ny4yMDEgNTc0LjUwOSAxOTcuNzMzVjQwMC41OTFDNTc0LjUwOSA0MzAuOTE2IDU1OC4zNjYgNDU4Ljk0NyA1MzIuMTM5IDQ3NC4xNjhMMzU4LjU2IDU3NC45QzMzMi4yMjcgNTkwLjE4MSAyOTkuNzM1IDU5MC4yMjUgMjczLjM2MSA1NzUuMDE0TDk5LjQ1NzYgNDc0LjcxOEM3My4xMTgzIDQ1OS41MjcgNTYuODg5NiA0MzEuNDMzIDU2Ljg4OTYgNDAxLjAyN1YxOTguMjc5QzU2Ljg4OTYgMTY3Ljc2OSA3My4yMjg0IDEzOS41OTYgOTkuNzA5NSAxMjQuNDQ0TDI3My43ODEgMjQuODQwOVpNNTIwLjQ1NyAxNDIuNzFMMzQ4LjE1NiA0NC4yODgyQzMxNi40NjQgODguOTU1MiAyOTcuNDk1IDE0NC43MDkgMjg0LjYxNCAxOTcuMzAyQzI3NS4xMTIgMTkzLjI1IDI2NC4zOTkgMTg4Ljg3MiAyNTQuMjkyIDE4NS4xOTJDMjYxLjI0MiAxMzkuMjM0IDI2OS4yNTcgOTMuMTc4MiAyNzguMjA3IDQ3LjU0ODRDMjIxLjY5NCA3OS44ODUgMTYzLjExIDExMC4wNzkgMTA4LjEyOCAxNDQuOTQyQzIxMy42MiAxNzguMjk2IDMyMi43MzIgMjEyLjMzNyA0MTMuMDU2IDI3OC4zNjdDNDA3LjQ3NSAyODMuNjYgNDAxLjE0NiAyODguOTM0IDM5MS43MjggMjk2LjYyOUMzMTEuNjIzIDIyOC4wNjcgMjExLjE2MSAxOTkuOTMyIDc4Ljc5NjcgMjA3LjY4NlYzOTcuODMxQzkwLjQ5MzUgMzk4LjYzIDEwMi40NzEgMzk5LjQyNSAxMTMuOTY1IDM5OS4wNzVDMzExLjI5NSAzOTMuMDY4IDQ1MC44NTMgMjk3LjM5NSA1MjAuNDU3IDE0Mi43MVpNMTA4Ljg4MiA0NTQuODM1QzE2NC4yNSA0ODguODYyIDIyMS42ODggNTE5LjkyMyAyNzcuOTg4IDU1Mi4zOTNDMjY4Ljg3MyA1MDQuODQ5IDI2MS4xOSA0NjAuMDE4IDI1NC4xMSA0MTIuMTE5QzI2NC45ODIgNDA4LjQxOSAyNzcuNDM4IDQwMy4zMjkgMjg0LjUxMSA0MDAuNDA1QzI5Ny44NzQgNDU2LjI3NCAzMTguMDE5IDUwNy4wMjYgMzQ5LjExNiA1NTUuMDUyTDUxNi4yMjggNDU4LjA3MkM1MDIuMzc2IDQwNy42NzYgNDU5LjA2OCAzNjIuNzc3IDQyMy44MzcgMzI3LjIxN0M0MzIuODU0IDMyMS4wNjkgNDQxLjQyNiAzMTQuMzE4IDQ0OS45OCAzMDcuNTQ5QzQ4NS4zODcgMzM2LjYwNSA1MTguMjE1IDM2Ni40NTMgNTUyLjYwMiAzOTYuNjk0VjIwNS41OTZDNTM3Ljk2OSAyMTkuMDM4IDUxNS42MDEgMjM5LjM2MSA0ODkuNDQxIDI2Mi4zNzZDMzc5LjIxNSAzNTkuMzQ2IDM0MC45NDIgMzczLjE0NSAxMDguODgyIDQ1NC44MzVaIiBjbGlwLXJ1bGU9ImV2ZW5vZGQiIGZpbGwtcnVsZT0iZXZlbm9kZCIvPiYjeGE7PC9zdmc+;fontFamily=Georgia;fontSize=26;" vertex="1" parent="mVLcT5szOXLsrqpceEyi-134">
          <mxGeometry x="9.671917808219158" y="7.3048027314112085" width="103.2841098827405" height="142.39707181684904" as="geometry" />
        </mxCell>
        <mxCell id="mVLcT5szOXLsrqpceEyi-138" value="" style="group;fontFamily=Georgia;fontSize=26;" vertex="1" connectable="0" parent="1">
          <mxGeometry x="-180.54794520547944" y="-1880.8209408194234" width="1420" height="440.8209408194233" as="geometry" />
        </mxCell>
        <mxCell id="mVLcT5szOXLsrqpceEyi-139" value="" style="strokeColor=#dddddd;shadow=1;strokeWidth=1;rounded=1;absoluteArcSize=1;arcSize=2;fontFamily=Georgia;fontSize=26;" vertex="1" parent="mVLcT5szOXLsrqpceEyi-138">
          <mxGeometry width="277.39726027397256" height="109.10971168437025" as="geometry" />
        </mxCell>
        <UserObject label="Terraformer" placeholders="1" id="mVLcT5szOXLsrqpceEyi-140">
          <mxCell style="text;html=1;strokeColor=none;fillColor=none;align=center;verticalAlign=middle;whiteSpace=wrap;overflow=hidden;fontColor=#B3B3B3;fontFamily=Georgia;fontSize=26;" vertex="1" parent="mVLcT5szOXLsrqpceEyi-138">
            <mxGeometry x="110.95890410958901" y="36.98634294385432" width="149.79452054794518" height="36.98634294385432" as="geometry" />
          </mxCell>
        </UserObject>
        <mxCell id="mVLcT5szOXLsrqpceEyi-141" value="" style="shape=image;verticalLabelPosition=bottom;labelBackgroundColor=default;verticalAlign=top;aspect=fixed;imageAspect=0;image=data:image/svg+xml,PHN2ZyB4bWxucz0iaHR0cDovL3d3dy53My5vcmcvMjAwMC9zdmciIGlkPSJzdmcyMiIgdmVyc2lvbj0iMS4xIiBmaWxsPSJub25lIiB2aWV3Qm94PSIwIDAgNjMxIDg3MCIgaGVpZ2h0PSI4NzAiIHdpZHRoPSI2MzEiPiYjeGE7ICA8ZGVmcyBpZD0iZGVmczI2Ii8+JiN4YTsgICYjeGE7ICA8cGF0aCBpZD0icGF0aDE4IiBmaWxsPSIjMkE2QTk1IiBkPSJNMjQ4LjAyMyAzNjkuNjU4QzI1OC41MTggMzY2LjU4OSAyNjguMjkxIDM2My40NzIgMjc2Ljk5MSAzNjAuMzkxQzI3MS44NjYgMzE5Ljc2NyAyNjkuMzA2IDI4MC4xMTcgMjc1LjM2MiAyMzkuMzc4QzI2NS45MjEgMjM2LjI2NSAyNTYuNTE4IDIzMy4yMDEgMjQ2LjkzNyAyMzAuNzAyQzI0MS40MDggMjc5LjkxNSAyNDMuMzY4IDMyNy41MDUgMjQ4LjAyMyAzNjkuNjU4WiIvPiYjeGE7ICA8cGF0aCBpZD0icGF0aDIwIiBmaWxsPSIjMkE2QTk1IiBkPSJNMjczLjc4MSAyNC44NDA5QzI5OS45MzYgOS44NzUwNSAzMzIuMDU3IDkuODYzMjUgMzU4LjIyNCAyNC44MDk5TDUzMS42MzUgMTIzLjg2NkM1NTguMTQ2IDEzOS4wMSA1NzQuNTA5IDE2Ny4yMDEgNTc0LjUwOSAxOTcuNzMzVjQwMC41OTFDNTc0LjUwOSA0MzAuOTE2IDU1OC4zNjYgNDU4Ljk0NyA1MzIuMTM5IDQ3NC4xNjhMMzU4LjU2IDU3NC45QzMzMi4yMjcgNTkwLjE4MSAyOTkuNzM1IDU5MC4yMjUgMjczLjM2MSA1NzUuMDE0TDk5LjQ1NzYgNDc0LjcxOEM3My4xMTgzIDQ1OS41MjcgNTYuODg5NiA0MzEuNDMzIDU2Ljg4OTYgNDAxLjAyN1YxOTguMjc5QzU2Ljg4OTYgMTY3Ljc2OSA3My4yMjg0IDEzOS41OTYgOTkuNzA5NSAxMjQuNDQ0TDI3My43ODEgMjQuODQwOVpNNTIwLjQ1NyAxNDIuNzFMMzQ4LjE1NiA0NC4yODgyQzMxNi40NjQgODguOTU1MiAyOTcuNDk1IDE0NC43MDkgMjg0LjYxNCAxOTcuMzAyQzI3NS4xMTIgMTkzLjI1IDI2NC4zOTkgMTg4Ljg3MiAyNTQuMjkyIDE4NS4xOTJDMjYxLjI0MiAxMzkuMjM0IDI2OS4yNTcgOTMuMTc4MiAyNzguMjA3IDQ3LjU0ODRDMjIxLjY5NCA3OS44ODUgMTYzLjExIDExMC4wNzkgMTA4LjEyOCAxNDQuOTQyQzIxMy42MiAxNzguMjk2IDMyMi43MzIgMjEyLjMzNyA0MTMuMDU2IDI3OC4zNjdDNDA3LjQ3NSAyODMuNjYgNDAxLjE0NiAyODguOTM0IDM5MS43MjggMjk2LjYyOUMzMTEuNjIzIDIyOC4wNjcgMjExLjE2MSAxOTkuOTMyIDc4Ljc5NjcgMjA3LjY4NlYzOTcuODMxQzkwLjQ5MzUgMzk4LjYzIDEwMi40NzEgMzk5LjQyNSAxMTMuOTY1IDM5OS4wNzVDMzExLjI5NSAzOTMuMDY4IDQ1MC44NTMgMjk3LjM5NSA1MjAuNDU3IDE0Mi43MVpNMTA4Ljg4MiA0NTQuODM1QzE2NC4yNSA0ODguODYyIDIyMS42ODggNTE5LjkyMyAyNzcuOTg4IDU1Mi4zOTNDMjY4Ljg3MyA1MDQuODQ5IDI2MS4xOSA0NjAuMDE4IDI1NC4xMSA0MTIuMTE5QzI2NC45ODIgNDA4LjQxOSAyNzcuNDM4IDQwMy4zMjkgMjg0LjUxMSA0MDAuNDA1QzI5Ny44NzQgNDU2LjI3NCAzMTguMDE5IDUwNy4wMjYgMzQ5LjExNiA1NTUuMDUyTDUxNi4yMjggNDU4LjA3MkM1MDIuMzc2IDQwNy42NzYgNDU5LjA2OCAzNjIuNzc3IDQyMy44MzcgMzI3LjIxN0M0MzIuODU0IDMyMS4wNjkgNDQxLjQyNiAzMTQuMzE4IDQ0OS45OCAzMDcuNTQ5QzQ4NS4zODcgMzM2LjYwNSA1MTguMjE1IDM2Ni40NTMgNTUyLjYwMiAzOTYuNjk0VjIwNS41OTZDNTM3Ljk2OSAyMTkuMDM4IDUxNS42MDEgMjM5LjM2MSA0ODkuNDQxIDI2Mi4zNzZDMzc5LjIxNSAzNTkuMzQ2IDM0MC45NDIgMzczLjE0NSAxMDguODgyIDQ1NC44MzVaIiBjbGlwLXJ1bGU9ImV2ZW5vZGQiIGZpbGwtcnVsZT0iZXZlbm9kZCIvPiYjeGE7PC9zdmc+;fontFamily=Georgia;fontSize=26;" vertex="1" parent="mVLcT5szOXLsrqpceEyi-138">
          <mxGeometry x="9.671917808219158" y="7.3048027314112085" width="103.2841098827405" height="142.39707181684904" as="geometry" />
        </mxCell>
        <mxCell id="mVLcT5szOXLsrqpceEyi-142" value="" style="curved=1;startArrow=none;endArrow=block;entryX=0.541;entryY=-0.031;entryDx=0;entryDy=0;entryPerimeter=0;exitX=0;exitY=0.5;exitDx=0;exitDy=0;fontFamily=Georgia;fontSize=26;" edge="1" parent="1" source="mVLcT5szOXLsrqpceEyi-118" target="mVLcT5szOXLsrqpceEyi-139">
          <mxGeometry relative="1" as="geometry">
            <Array as="points">
              <mxPoint x="78.35616438356158" y="-1973.2867981790591" />
            </Array>
            <mxPoint x="207.80821917808214" y="-1973.2867981790591" as="sourcePoint" />
            <mxPoint x="62.52618382428659" y="-1862.327769347496" as="targetPoint" />
          </mxGeometry>
        </mxCell>
        <mxCell id="mVLcT5szOXLsrqpceEyi-143" value="" style="group;fontFamily=Georgia;fontSize=26;" vertex="1" connectable="0" parent="1">
          <mxGeometry x="466.71232876712315" y="-1806.8482549317146" width="277.39726027397256" height="149.70222306525045" as="geometry" />
        </mxCell>
        <mxCell id="mVLcT5szOXLsrqpceEyi-144" value="" style="strokeColor=#dddddd;shadow=1;strokeWidth=1;rounded=1;absoluteArcSize=1;arcSize=2;fontFamily=Georgia;fontSize=26;" vertex="1" parent="mVLcT5szOXLsrqpceEyi-143">
          <mxGeometry width="277.39726027397256" height="109.10971168437025" as="geometry" />
        </mxCell>
        <UserObject label="Kube-eleven" placeholders="1" id="mVLcT5szOXLsrqpceEyi-145">
          <mxCell style="text;html=1;strokeColor=none;fillColor=none;align=center;verticalAlign=middle;whiteSpace=wrap;overflow=hidden;fontColor=#B3B3B3;fontFamily=Georgia;fontSize=26;" vertex="1" parent="mVLcT5szOXLsrqpceEyi-143">
            <mxGeometry x="110.95890410958901" y="36.98634294385432" width="149.79452054794518" height="36.98634294385432" as="geometry" />
          </mxCell>
        </UserObject>
        <mxCell id="mVLcT5szOXLsrqpceEyi-146" value="" style="shape=image;verticalLabelPosition=bottom;labelBackgroundColor=default;verticalAlign=top;aspect=fixed;imageAspect=0;image=data:image/svg+xml,PHN2ZyB4bWxucz0iaHR0cDovL3d3dy53My5vcmcvMjAwMC9zdmciIGlkPSJzdmcyMiIgdmVyc2lvbj0iMS4xIiBmaWxsPSJub25lIiB2aWV3Qm94PSIwIDAgNjMxIDg3MCIgaGVpZ2h0PSI4NzAiIHdpZHRoPSI2MzEiPiYjeGE7ICA8ZGVmcyBpZD0iZGVmczI2Ii8+JiN4YTsgICYjeGE7ICA8cGF0aCBpZD0icGF0aDE4IiBmaWxsPSIjMkE2QTk1IiBkPSJNMjQ4LjAyMyAzNjkuNjU4QzI1OC41MTggMzY2LjU4OSAyNjguMjkxIDM2My40NzIgMjc2Ljk5MSAzNjAuMzkxQzI3MS44NjYgMzE5Ljc2NyAyNjkuMzA2IDI4MC4xMTcgMjc1LjM2MiAyMzkuMzc4QzI2NS45MjEgMjM2LjI2NSAyNTYuNTE4IDIzMy4yMDEgMjQ2LjkzNyAyMzAuNzAyQzI0MS40MDggMjc5LjkxNSAyNDMuMzY4IDMyNy41MDUgMjQ4LjAyMyAzNjkuNjU4WiIvPiYjeGE7ICA8cGF0aCBpZD0icGF0aDIwIiBmaWxsPSIjMkE2QTk1IiBkPSJNMjczLjc4MSAyNC44NDA5QzI5OS45MzYgOS44NzUwNSAzMzIuMDU3IDkuODYzMjUgMzU4LjIyNCAyNC44MDk5TDUzMS42MzUgMTIzLjg2NkM1NTguMTQ2IDEzOS4wMSA1NzQuNTA5IDE2Ny4yMDEgNTc0LjUwOSAxOTcuNzMzVjQwMC41OTFDNTc0LjUwOSA0MzAuOTE2IDU1OC4zNjYgNDU4Ljk0NyA1MzIuMTM5IDQ3NC4xNjhMMzU4LjU2IDU3NC45QzMzMi4yMjcgNTkwLjE4MSAyOTkuNzM1IDU5MC4yMjUgMjczLjM2MSA1NzUuMDE0TDk5LjQ1NzYgNDc0LjcxOEM3My4xMTgzIDQ1OS41MjcgNTYuODg5NiA0MzEuNDMzIDU2Ljg4OTYgNDAxLjAyN1YxOTguMjc5QzU2Ljg4OTYgMTY3Ljc2OSA3My4yMjg0IDEzOS41OTYgOTkuNzA5NSAxMjQuNDQ0TDI3My43ODEgMjQuODQwOVpNNTIwLjQ1NyAxNDIuNzFMMzQ4LjE1NiA0NC4yODgyQzMxNi40NjQgODguOTU1MiAyOTcuNDk1IDE0NC43MDkgMjg0LjYxNCAxOTcuMzAyQzI3NS4xMTIgMTkzLjI1IDI2NC4zOTkgMTg4Ljg3MiAyNTQuMjkyIDE4NS4xOTJDMjYxLjI0MiAxMzkuMjM0IDI2OS4yNTcgOTMuMTc4MiAyNzguMjA3IDQ3LjU0ODRDMjIxLjY5NCA3OS44ODUgMTYzLjExIDExMC4wNzkgMTA4LjEyOCAxNDQuOTQyQzIxMy42MiAxNzguMjk2IDMyMi43MzIgMjEyLjMzNyA0MTMuMDU2IDI3OC4zNjdDNDA3LjQ3NSAyODMuNjYgNDAxLjE0NiAyODguOTM0IDM5MS43MjggMjk2LjYyOUMzMTEuNjIzIDIyOC4wNjcgMjExLjE2MSAxOTkuOTMyIDc4Ljc5NjcgMjA3LjY4NlYzOTcuODMxQzkwLjQ5MzUgMzk4LjYzIDEwMi40NzEgMzk5LjQyNSAxMTMuOTY1IDM5OS4wNzVDMzExLjI5NSAzOTMuMDY4IDQ1MC44NTMgMjk3LjM5NSA1MjAuNDU3IDE0Mi43MVpNMTA4Ljg4MiA0NTQuODM1QzE2NC4yNSA0ODguODYyIDIyMS42ODggNTE5LjkyMyAyNzcuOTg4IDU1Mi4zOTNDMjY4Ljg3MyA1MDQuODQ5IDI2MS4xOSA0NjAuMDE4IDI1NC4xMSA0MTIuMTE5QzI2NC45ODIgNDA4LjQxOSAyNzcuNDM4IDQwMy4zMjkgMjg0LjUxMSA0MDAuNDA1QzI5Ny44NzQgNDU2LjI3NCAzMTguMDE5IDUwNy4wMjYgMzQ5LjExNiA1NTUuMDUyTDUxNi4yMjggNDU4LjA3MkM1MDIuMzc2IDQwNy42NzYgNDU5LjA2OCAzNjIuNzc3IDQyMy44MzcgMzI3LjIxN0M0MzIuODU0IDMyMS4wNjkgNDQxLjQyNiAzMTQuMzE4IDQ0OS45OCAzMDcuNTQ5QzQ4NS4zODcgMzM2LjYwNSA1MTguMjE1IDM2Ni40NTMgNTUyLjYwMiAzOTYuNjk0VjIwNS41OTZDNTM3Ljk2OSAyMTkuMDM4IDUxNS42MDEgMjM5LjM2MSA0ODkuNDQxIDI2Mi4zNzZDMzc5LjIxNSAzNTkuMzQ2IDM0MC45NDIgMzczLjE0NSAxMDguODgyIDQ1NC44MzVaIiBjbGlwLXJ1bGU9ImV2ZW5vZGQiIGZpbGwtcnVsZT0iZXZlbm9kZCIvPiYjeGE7PC9zdmc+;fontFamily=Georgia;fontSize=26;" vertex="1" parent="mVLcT5szOXLsrqpceEyi-143">
          <mxGeometry x="9.671917808219158" y="7.304802731411312" width="103.2841098827405" height="142.39707181684904" as="geometry" />
        </mxCell>
        <mxCell id="mVLcT5szOXLsrqpceEyi-147" value="" style="group;fontFamily=Georgia;fontSize=26;" vertex="1" connectable="0" parent="1">
          <mxGeometry x="762.6027397260273" y="-1806.8482549317146" width="277.39726027397256" height="149.70222306525045" as="geometry" />
        </mxCell>
        <mxCell id="mVLcT5szOXLsrqpceEyi-148" value="" style="strokeColor=#dddddd;shadow=1;strokeWidth=1;rounded=1;absoluteArcSize=1;arcSize=2;fontFamily=Georgia;fontSize=26;" vertex="1" parent="mVLcT5szOXLsrqpceEyi-147">
          <mxGeometry width="277.39726027397256" height="109.10971168437025" as="geometry" />
        </mxCell>
        <UserObject label="Kuber" placeholders="1" id="mVLcT5szOXLsrqpceEyi-149">
          <mxCell style="text;html=1;strokeColor=none;fillColor=none;align=center;verticalAlign=middle;whiteSpace=wrap;overflow=hidden;fontColor=#B3B3B3;fontFamily=Georgia;fontSize=26;" vertex="1" parent="mVLcT5szOXLsrqpceEyi-147">
            <mxGeometry x="110.95890410958901" y="36.98634294385432" width="110.95890410958901" height="36.98634294385432" as="geometry" />
          </mxCell>
        </UserObject>
        <mxCell id="mVLcT5szOXLsrqpceEyi-150" value="" style="shape=image;verticalLabelPosition=bottom;labelBackgroundColor=default;verticalAlign=top;aspect=fixed;imageAspect=0;image=data:image/svg+xml,PHN2ZyB4bWxucz0iaHR0cDovL3d3dy53My5vcmcvMjAwMC9zdmciIGlkPSJzdmcyMiIgdmVyc2lvbj0iMS4xIiBmaWxsPSJub25lIiB2aWV3Qm94PSIwIDAgNjMxIDg3MCIgaGVpZ2h0PSI4NzAiIHdpZHRoPSI2MzEiPiYjeGE7ICA8ZGVmcyBpZD0iZGVmczI2Ii8+JiN4YTsgICYjeGE7ICA8cGF0aCBpZD0icGF0aDE4IiBmaWxsPSIjMkE2QTk1IiBkPSJNMjQ4LjAyMyAzNjkuNjU4QzI1OC41MTggMzY2LjU4OSAyNjguMjkxIDM2My40NzIgMjc2Ljk5MSAzNjAuMzkxQzI3MS44NjYgMzE5Ljc2NyAyNjkuMzA2IDI4MC4xMTcgMjc1LjM2MiAyMzkuMzc4QzI2NS45MjEgMjM2LjI2NSAyNTYuNTE4IDIzMy4yMDEgMjQ2LjkzNyAyMzAuNzAyQzI0MS40MDggMjc5LjkxNSAyNDMuMzY4IDMyNy41MDUgMjQ4LjAyMyAzNjkuNjU4WiIvPiYjeGE7ICA8cGF0aCBpZD0icGF0aDIwIiBmaWxsPSIjMkE2QTk1IiBkPSJNMjczLjc4MSAyNC44NDA5QzI5OS45MzYgOS44NzUwNSAzMzIuMDU3IDkuODYzMjUgMzU4LjIyNCAyNC44MDk5TDUzMS42MzUgMTIzLjg2NkM1NTguMTQ2IDEzOS4wMSA1NzQuNTA5IDE2Ny4yMDEgNTc0LjUwOSAxOTcuNzMzVjQwMC41OTFDNTc0LjUwOSA0MzAuOTE2IDU1OC4zNjYgNDU4Ljk0NyA1MzIuMTM5IDQ3NC4xNjhMMzU4LjU2IDU3NC45QzMzMi4yMjcgNTkwLjE4MSAyOTkuNzM1IDU5MC4yMjUgMjczLjM2MSA1NzUuMDE0TDk5LjQ1NzYgNDc0LjcxOEM3My4xMTgzIDQ1OS41MjcgNTYuODg5NiA0MzEuNDMzIDU2Ljg4OTYgNDAxLjAyN1YxOTguMjc5QzU2Ljg4OTYgMTY3Ljc2OSA3My4yMjg0IDEzOS41OTYgOTkuNzA5NSAxMjQuNDQ0TDI3My43ODEgMjQuODQwOVpNNTIwLjQ1NyAxNDIuNzFMMzQ4LjE1NiA0NC4yODgyQzMxNi40NjQgODguOTU1MiAyOTcuNDk1IDE0NC43MDkgMjg0LjYxNCAxOTcuMzAyQzI3NS4xMTIgMTkzLjI1IDI2NC4zOTkgMTg4Ljg3MiAyNTQuMjkyIDE4NS4xOTJDMjYxLjI0MiAxMzkuMjM0IDI2OS4yNTcgOTMuMTc4MiAyNzguMjA3IDQ3LjU0ODRDMjIxLjY5NCA3OS44ODUgMTYzLjExIDExMC4wNzkgMTA4LjEyOCAxNDQuOTQyQzIxMy42MiAxNzguMjk2IDMyMi43MzIgMjEyLjMzNyA0MTMuMDU2IDI3OC4zNjdDNDA3LjQ3NSAyODMuNjYgNDAxLjE0NiAyODguOTM0IDM5MS43MjggMjk2LjYyOUMzMTEuNjIzIDIyOC4wNjcgMjExLjE2MSAxOTkuOTMyIDc4Ljc5NjcgMjA3LjY4NlYzOTcuODMxQzkwLjQ5MzUgMzk4LjYzIDEwMi40NzEgMzk5LjQyNSAxMTMuOTY1IDM5OS4wNzVDMzExLjI5NSAzOTMuMDY4IDQ1MC44NTMgMjk3LjM5NSA1MjAuNDU3IDE0Mi43MVpNMTA4Ljg4MiA0NTQuODM1QzE2NC4yNSA0ODguODYyIDIyMS42ODggNTE5LjkyMyAyNzcuOTg4IDU1Mi4zOTNDMjY4Ljg3MyA1MDQuODQ5IDI2MS4xOSA0NjAuMDE4IDI1NC4xMSA0MTIuMTE5QzI2NC45ODIgNDA4LjQxOSAyNzcuNDM4IDQwMy4zMjkgMjg0LjUxMSA0MDAuNDA1QzI5Ny44NzQgNDU2LjI3NCAzMTguMDE5IDUwNy4wMjYgMzQ5LjExNiA1NTUuMDUyTDUxNi4yMjggNDU4LjA3MkM1MDIuMzc2IDQwNy42NzYgNDU5LjA2OCAzNjIuNzc3IDQyMy44MzcgMzI3LjIxN0M0MzIuODU0IDMyMS4wNjkgNDQxLjQyNiAzMTQuMzE4IDQ0OS45OCAzMDcuNTQ5QzQ4NS4zODcgMzM2LjYwNSA1MTguMjE1IDM2Ni40NTMgNTUyLjYwMiAzOTYuNjk0VjIwNS41OTZDNTM3Ljk2OSAyMTkuMDM4IDUxNS42MDEgMjM5LjM2MSA0ODkuNDQxIDI2Mi4zNzZDMzc5LjIxNSAzNTkuMzQ2IDM0MC45NDIgMzczLjE0NSAxMDguODgyIDQ1NC44MzVaIiBjbGlwLXJ1bGU9ImV2ZW5vZGQiIGZpbGwtcnVsZT0iZXZlbm9kZCIvPiYjeGE7PC9zdmc+;fontFamily=Georgia;fontSize=26;" vertex="1" parent="mVLcT5szOXLsrqpceEyi-147">
          <mxGeometry x="9.671917808219158" y="7.304802731411312" width="103.2841098827405" height="142.39707181684904" as="geometry" />
        </mxCell>
        <mxCell id="mVLcT5szOXLsrqpceEyi-151" value="" style="curved=1;startArrow=none;endArrow=block;exitX=1;exitY=0.5;exitDx=0;exitDy=0;entryX=0.388;entryY=-0.044;entryDx=0;entryDy=0;entryPerimeter=0;fontFamily=Georgia;fontSize=26;" edge="1" parent="1" source="mVLcT5szOXLsrqpceEyi-118" target="mVLcT5szOXLsrqpceEyi-148">
          <mxGeometry relative="1" as="geometry">
            <Array as="points">
              <mxPoint x="806.9863013698628" y="-1938.1497723823977" />
            </Array>
            <mxPoint x="498.1506849315067" y="-2002.127224568188" as="sourcePoint" />
            <mxPoint x="799.5890410958903" y="-1880.8209408194234" as="targetPoint" />
          </mxGeometry>
        </mxCell>
        <mxCell id="mVLcT5szOXLsrqpceEyi-152" value="" style="group;fontFamily=Georgia;fontSize=26;" vertex="1" connectable="0" parent="1">
          <mxGeometry x="570.0021917808218" y="-2550.0043702579665" width="577.3972602739725" height="299.4022230652504" as="geometry" />
        </mxCell>
        <mxCell id="mVLcT5szOXLsrqpceEyi-153" value="" style="group" vertex="1" connectable="0" parent="mVLcT5szOXLsrqpceEyi-152">
          <mxGeometry width="277.39726027397256" height="149.70187454826024" as="geometry" />
        </mxCell>
        <mxCell id="mVLcT5szOXLsrqpceEyi-154" value="" style="strokeColor=#dddddd;shadow=1;strokeWidth=1;rounded=1;absoluteArcSize=1;arcSize=2;fontFamily=Georgia;fontSize=26;" vertex="1" parent="mVLcT5szOXLsrqpceEyi-153">
          <mxGeometry width="277.39726027397256" height="109.10971168437025" as="geometry" />
        </mxCell>
        <UserObject label="&lt;font style=&quot;font-size: 19px;&quot;&gt;autoscaler-adapter-cluster-1&lt;/font&gt;" placeholders="1" id="mVLcT5szOXLsrqpceEyi-155">
          <mxCell style="text;html=1;strokeColor=none;fillColor=none;align=center;verticalAlign=middle;whiteSpace=wrap;overflow=hidden;fontColor=#B3B3B3;fontFamily=Georgia;fontSize=26;" vertex="1" parent="mVLcT5szOXLsrqpceEyi-153">
            <mxGeometry x="112.96" y="7.3" width="149.79" height="90" as="geometry" />
          </mxCell>
        </UserObject>
        <mxCell id="mVLcT5szOXLsrqpceEyi-156" value="" style="shape=image;verticalLabelPosition=bottom;labelBackgroundColor=default;verticalAlign=top;aspect=fixed;imageAspect=0;image=data:image/svg+xml,PHN2ZyB4bWxucz0iaHR0cDovL3d3dy53My5vcmcvMjAwMC9zdmciIGlkPSJzdmcyMiIgdmVyc2lvbj0iMS4xIiBmaWxsPSJub25lIiB2aWV3Qm94PSIwIDAgNjMxIDg3MCIgaGVpZ2h0PSI4NzAiIHdpZHRoPSI2MzEiPiYjeGE7ICA8ZGVmcyBpZD0iZGVmczI2Ii8+JiN4YTsgICYjeGE7ICA8cGF0aCBpZD0icGF0aDE4IiBmaWxsPSIjMkE2QTk1IiBkPSJNMjQ4LjAyMyAzNjkuNjU4QzI1OC41MTggMzY2LjU4OSAyNjguMjkxIDM2My40NzIgMjc2Ljk5MSAzNjAuMzkxQzI3MS44NjYgMzE5Ljc2NyAyNjkuMzA2IDI4MC4xMTcgMjc1LjM2MiAyMzkuMzc4QzI2NS45MjEgMjM2LjI2NSAyNTYuNTE4IDIzMy4yMDEgMjQ2LjkzNyAyMzAuNzAyQzI0MS40MDggMjc5LjkxNSAyNDMuMzY4IDMyNy41MDUgMjQ4LjAyMyAzNjkuNjU4WiIvPiYjeGE7ICA8cGF0aCBpZD0icGF0aDIwIiBmaWxsPSIjMkE2QTk1IiBkPSJNMjczLjc4MSAyNC44NDA5QzI5OS45MzYgOS44NzUwNSAzMzIuMDU3IDkuODYzMjUgMzU4LjIyNCAyNC44MDk5TDUzMS42MzUgMTIzLjg2NkM1NTguMTQ2IDEzOS4wMSA1NzQuNTA5IDE2Ny4yMDEgNTc0LjUwOSAxOTcuNzMzVjQwMC41OTFDNTc0LjUwOSA0MzAuOTE2IDU1OC4zNjYgNDU4Ljk0NyA1MzIuMTM5IDQ3NC4xNjhMMzU4LjU2IDU3NC45QzMzMi4yMjcgNTkwLjE4MSAyOTkuNzM1IDU5MC4yMjUgMjczLjM2MSA1NzUuMDE0TDk5LjQ1NzYgNDc0LjcxOEM3My4xMTgzIDQ1OS41MjcgNTYuODg5NiA0MzEuNDMzIDU2Ljg4OTYgNDAxLjAyN1YxOTguMjc5QzU2Ljg4OTYgMTY3Ljc2OSA3My4yMjg0IDEzOS41OTYgOTkuNzA5NSAxMjQuNDQ0TDI3My43ODEgMjQuODQwOVpNNTIwLjQ1NyAxNDIuNzFMMzQ4LjE1NiA0NC4yODgyQzMxNi40NjQgODguOTU1MiAyOTcuNDk1IDE0NC43MDkgMjg0LjYxNCAxOTcuMzAyQzI3NS4xMTIgMTkzLjI1IDI2NC4zOTkgMTg4Ljg3MiAyNTQuMjkyIDE4NS4xOTJDMjYxLjI0MiAxMzkuMjM0IDI2OS4yNTcgOTMuMTc4MiAyNzguMjA3IDQ3LjU0ODRDMjIxLjY5NCA3OS44ODUgMTYzLjExIDExMC4wNzkgMTA4LjEyOCAxNDQuOTQyQzIxMy42MiAxNzguMjk2IDMyMi43MzIgMjEyLjMzNyA0MTMuMDU2IDI3OC4zNjdDNDA3LjQ3NSAyODMuNjYgNDAxLjE0NiAyODguOTM0IDM5MS43MjggMjk2LjYyOUMzMTEuNjIzIDIyOC4wNjcgMjExLjE2MSAxOTkuOTMyIDc4Ljc5NjcgMjA3LjY4NlYzOTcuODMxQzkwLjQ5MzUgMzk4LjYzIDEwMi40NzEgMzk5LjQyNSAxMTMuOTY1IDM5OS4wNzVDMzExLjI5NSAzOTMuMDY4IDQ1MC44NTMgMjk3LjM5NSA1MjAuNDU3IDE0Mi43MVpNMTA4Ljg4MiA0NTQuODM1QzE2NC4yNSA0ODguODYyIDIyMS42ODggNTE5LjkyMyAyNzcuOTg4IDU1Mi4zOTNDMjY4Ljg3MyA1MDQuODQ5IDI2MS4xOSA0NjAuMDE4IDI1NC4xMSA0MTIuMTE5QzI2NC45ODIgNDA4LjQxOSAyNzcuNDM4IDQwMy4zMjkgMjg0LjUxMSA0MDAuNDA1QzI5Ny44NzQgNDU2LjI3NCAzMTguMDE5IDUwNy4wMjYgMzQ5LjExNiA1NTUuMDUyTDUxNi4yMjggNDU4LjA3MkM1MDIuMzc2IDQwNy42NzYgNDU5LjA2OCAzNjIuNzc3IDQyMy44MzcgMzI3LjIxN0M0MzIuODU0IDMyMS4wNjkgNDQxLjQyNiAzMTQuMzE4IDQ0OS45OCAzMDcuNTQ5QzQ4NS4zODcgMzM2LjYwNSA1MTguMjE1IDM2Ni40NTMgNTUyLjYwMiAzOTYuNjk0VjIwNS41OTZDNTM3Ljk2OSAyMTkuMDM4IDUxNS42MDEgMjM5LjM2MSA0ODkuNDQxIDI2Mi4zNzZDMzc5LjIxNSAzNTkuMzQ2IDM0MC45NDIgMzczLjE0NSAxMDguODgyIDQ1NC44MzVaIiBjbGlwLXJ1bGU9ImV2ZW5vZGQiIGZpbGwtcnVsZT0iZXZlbm9kZCIvPiYjeGE7PC9zdmc+;fontFamily=Georgia;fontSize=26;" vertex="1" parent="mVLcT5szOXLsrqpceEyi-153">
          <mxGeometry x="9.671917808219158" y="7.3048027314112085" width="103.2841098827405" height="142.39707181684904" as="geometry" />
        </mxCell>
        <mxCell id="mVLcT5szOXLsrqpceEyi-157" value="" style="group;fontFamily=Georgia;fontSize=26;" vertex="1" connectable="0" parent="mVLcT5szOXLsrqpceEyi-152">
          <mxGeometry y="149.7" width="277.39726027397256" height="149.70222306525037" as="geometry" />
        </mxCell>
        <mxCell id="mVLcT5szOXLsrqpceEyi-158" value="" style="strokeColor=#dddddd;shadow=1;strokeWidth=1;rounded=1;absoluteArcSize=1;arcSize=2;fontFamily=Georgia;fontSize=26;" vertex="1" parent="mVLcT5szOXLsrqpceEyi-157">
          <mxGeometry width="277.39726027397256" height="109.10971168437025" as="geometry" />
        </mxCell>
        <mxCell id="mVLcT5szOXLsrqpceEyi-159" value="" style="shape=image;verticalLabelPosition=bottom;labelBackgroundColor=default;verticalAlign=top;aspect=fixed;imageAspect=0;image=data:image/svg+xml,PHN2ZyB4bWxucz0iaHR0cDovL3d3dy53My5vcmcvMjAwMC9zdmciIGlkPSJzdmcyMiIgdmVyc2lvbj0iMS4xIiBmaWxsPSJub25lIiB2aWV3Qm94PSIwIDAgNjMxIDg3MCIgaGVpZ2h0PSI4NzAiIHdpZHRoPSI2MzEiPiYjeGE7ICA8ZGVmcyBpZD0iZGVmczI2Ii8+JiN4YTsgICYjeGE7ICA8cGF0aCBpZD0icGF0aDE4IiBmaWxsPSIjMkE2QTk1IiBkPSJNMjQ4LjAyMyAzNjkuNjU4QzI1OC41MTggMzY2LjU4OSAyNjguMjkxIDM2My40NzIgMjc2Ljk5MSAzNjAuMzkxQzI3MS44NjYgMzE5Ljc2NyAyNjkuMzA2IDI4MC4xMTcgMjc1LjM2MiAyMzkuMzc4QzI2NS45MjEgMjM2LjI2NSAyNTYuNTE4IDIzMy4yMDEgMjQ2LjkzNyAyMzAuNzAyQzI0MS40MDggMjc5LjkxNSAyNDMuMzY4IDMyNy41MDUgMjQ4LjAyMyAzNjkuNjU4WiIvPiYjeGE7ICA8cGF0aCBpZD0icGF0aDIwIiBmaWxsPSIjMkE2QTk1IiBkPSJNMjczLjc4MSAyNC44NDA5QzI5OS45MzYgOS44NzUwNSAzMzIuMDU3IDkuODYzMjUgMzU4LjIyNCAyNC44MDk5TDUzMS42MzUgMTIzLjg2NkM1NTguMTQ2IDEzOS4wMSA1NzQuNTA5IDE2Ny4yMDEgNTc0LjUwOSAxOTcuNzMzVjQwMC41OTFDNTc0LjUwOSA0MzAuOTE2IDU1OC4zNjYgNDU4Ljk0NyA1MzIuMTM5IDQ3NC4xNjhMMzU4LjU2IDU3NC45QzMzMi4yMjcgNTkwLjE4MSAyOTkuNzM1IDU5MC4yMjUgMjczLjM2MSA1NzUuMDE0TDk5LjQ1NzYgNDc0LjcxOEM3My4xMTgzIDQ1OS41MjcgNTYuODg5NiA0MzEuNDMzIDU2Ljg4OTYgNDAxLjAyN1YxOTguMjc5QzU2Ljg4OTYgMTY3Ljc2OSA3My4yMjg0IDEzOS41OTYgOTkuNzA5NSAxMjQuNDQ0TDI3My43ODEgMjQuODQwOVpNNTIwLjQ1NyAxNDIuNzFMMzQ4LjE1NiA0NC4yODgyQzMxNi40NjQgODguOTU1MiAyOTcuNDk1IDE0NC43MDkgMjg0LjYxNCAxOTcuMzAyQzI3NS4xMTIgMTkzLjI1IDI2NC4zOTkgMTg4Ljg3MiAyNTQuMjkyIDE4NS4xOTJDMjYxLjI0MiAxMzkuMjM0IDI2OS4yNTcgOTMuMTc4MiAyNzguMjA3IDQ3LjU0ODRDMjIxLjY5NCA3OS44ODUgMTYzLjExIDExMC4wNzkgMTA4LjEyOCAxNDQuOTQyQzIxMy42MiAxNzguMjk2IDMyMi43MzIgMjEyLjMzNyA0MTMuMDU2IDI3OC4zNjdDNDA3LjQ3NSAyODMuNjYgNDAxLjE0NiAyODguOTM0IDM5MS43MjggMjk2LjYyOUMzMTEuNjIzIDIyOC4wNjcgMjExLjE2MSAxOTkuOTMyIDc4Ljc5NjcgMjA3LjY4NlYzOTcuODMxQzkwLjQ5MzUgMzk4LjYzIDEwMi40NzEgMzk5LjQyNSAxMTMuOTY1IDM5OS4wNzVDMzExLjI5NSAzOTMuMDY4IDQ1MC44NTMgMjk3LjM5NSA1MjAuNDU3IDE0Mi43MVpNMTA4Ljg4MiA0NTQuODM1QzE2NC4yNSA0ODguODYyIDIyMS42ODggNTE5LjkyMyAyNzcuOTg4IDU1Mi4zOTNDMjY4Ljg3MyA1MDQuODQ5IDI2MS4xOSA0NjAuMDE4IDI1NC4xMSA0MTIuMTE5QzI2NC45ODIgNDA4LjQxOSAyNzcuNDM4IDQwMy4zMjkgMjg0LjUxMSA0MDAuNDA1QzI5Ny44NzQgNDU2LjI3NCAzMTguMDE5IDUwNy4wMjYgMzQ5LjExNiA1NTUuMDUyTDUxNi4yMjggNDU4LjA3MkM1MDIuMzc2IDQwNy42NzYgNDU5LjA2OCAzNjIuNzc3IDQyMy44MzcgMzI3LjIxN0M0MzIuODU0IDMyMS4wNjkgNDQxLjQyNiAzMTQuMzE4IDQ0OS45OCAzMDcuNTQ5QzQ4NS4zODcgMzM2LjYwNSA1MTguMjE1IDM2Ni40NTMgNTUyLjYwMiAzOTYuNjk0VjIwNS41OTZDNTM3Ljk2OSAyMTkuMDM4IDUxNS42MDEgMjM5LjM2MSA0ODkuNDQxIDI2Mi4zNzZDMzc5LjIxNSAzNTkuMzQ2IDM0MC45NDIgMzczLjE0NSAxMDguODgyIDQ1NC44MzVaIiBjbGlwLXJ1bGU9ImV2ZW5vZGQiIGZpbGwtcnVsZT0iZXZlbm9kZCIvPiYjeGE7PC9zdmc+;fontFamily=Georgia;fontSize=26;" vertex="1" parent="mVLcT5szOXLsrqpceEyi-157">
          <mxGeometry x="9.671917808219158" y="7.3048027314112085" width="103.2841098827405" height="142.39707181684904" as="geometry" />
        </mxCell>
        <UserObject label="&lt;font style=&quot;font-size: 19px;&quot;&gt;autoscaler-adapter-cluster-n&lt;/font&gt;" placeholders="1" id="mVLcT5szOXLsrqpceEyi-160">
          <mxCell style="text;html=1;strokeColor=none;fillColor=none;align=center;verticalAlign=middle;whiteSpace=wrap;overflow=hidden;fontColor=#B3B3B3;fontFamily=Georgia;fontSize=26;" vertex="1" parent="mVLcT5szOXLsrqpceEyi-157">
            <mxGeometry x="112.95999999999998" y="7.300000000000011" width="149.79" height="90" as="geometry" />
          </mxCell>
        </UserObject>
        <mxCell id="mVLcT5szOXLsrqpceEyi-161" value="" style="group;fontFamily=Georgia;fontSize=26;" vertex="1" connectable="0" parent="mVLcT5szOXLsrqpceEyi-152">
          <mxGeometry x="281" y="149.7" width="277.39726027397256" height="149.70222306525037" as="geometry" />
        </mxCell>
        <mxCell id="mVLcT5szOXLsrqpceEyi-162" value="" style="strokeColor=#dddddd;shadow=1;strokeWidth=1;rounded=1;absoluteArcSize=1;arcSize=2;fontFamily=Georgia;fontSize=26;" vertex="1" parent="mVLcT5szOXLsrqpceEyi-161">
          <mxGeometry width="277.39726027397256" height="109.10971168437025" as="geometry" />
        </mxCell>
        <mxCell id="mVLcT5szOXLsrqpceEyi-163" value="" style="shape=image;verticalLabelPosition=bottom;labelBackgroundColor=default;verticalAlign=top;aspect=fixed;imageAspect=0;image=data:image/svg+xml,PHN2ZyB4bWxucz0iaHR0cDovL3d3dy53My5vcmcvMjAwMC9zdmciIGlkPSJzdmcyMiIgdmVyc2lvbj0iMS4xIiBmaWxsPSJub25lIiB2aWV3Qm94PSIwIDAgNjMxIDg3MCIgaGVpZ2h0PSI4NzAiIHdpZHRoPSI2MzEiPiYjeGE7ICA8ZGVmcyBpZD0iZGVmczI2Ii8+JiN4YTsgICYjeGE7ICA8cGF0aCBpZD0icGF0aDE4IiBmaWxsPSIjMkE2QTk1IiBkPSJNMjQ4LjAyMyAzNjkuNjU4QzI1OC41MTggMzY2LjU4OSAyNjguMjkxIDM2My40NzIgMjc2Ljk5MSAzNjAuMzkxQzI3MS44NjYgMzE5Ljc2NyAyNjkuMzA2IDI4MC4xMTcgMjc1LjM2MiAyMzkuMzc4QzI2NS45MjEgMjM2LjI2NSAyNTYuNTE4IDIzMy4yMDEgMjQ2LjkzNyAyMzAuNzAyQzI0MS40MDggMjc5LjkxNSAyNDMuMzY4IDMyNy41MDUgMjQ4LjAyMyAzNjkuNjU4WiIvPiYjeGE7ICA8cGF0aCBpZD0icGF0aDIwIiBmaWxsPSIjMkE2QTk1IiBkPSJNMjczLjc4MSAyNC44NDA5QzI5OS45MzYgOS44NzUwNSAzMzIuMDU3IDkuODYzMjUgMzU4LjIyNCAyNC44MDk5TDUzMS42MzUgMTIzLjg2NkM1NTguMTQ2IDEzOS4wMSA1NzQuNTA5IDE2Ny4yMDEgNTc0LjUwOSAxOTcuNzMzVjQwMC41OTFDNTc0LjUwOSA0MzAuOTE2IDU1OC4zNjYgNDU4Ljk0NyA1MzIuMTM5IDQ3NC4xNjhMMzU4LjU2IDU3NC45QzMzMi4yMjcgNTkwLjE4MSAyOTkuNzM1IDU5MC4yMjUgMjczLjM2MSA1NzUuMDE0TDk5LjQ1NzYgNDc0LjcxOEM3My4xMTgzIDQ1OS41MjcgNTYuODg5NiA0MzEuNDMzIDU2Ljg4OTYgNDAxLjAyN1YxOTguMjc5QzU2Ljg4OTYgMTY3Ljc2OSA3My4yMjg0IDEzOS41OTYgOTkuNzA5NSAxMjQuNDQ0TDI3My43ODEgMjQuODQwOVpNNTIwLjQ1NyAxNDIuNzFMMzQ4LjE1NiA0NC4yODgyQzMxNi40NjQgODguOTU1MiAyOTcuNDk1IDE0NC43MDkgMjg0LjYxNCAxOTcuMzAyQzI3NS4xMTIgMTkzLjI1IDI2NC4zOTkgMTg4Ljg3MiAyNTQuMjkyIDE4NS4xOTJDMjYxLjI0MiAxMzkuMjM0IDI2OS4yNTcgOTMuMTc4MiAyNzguMjA3IDQ3LjU0ODRDMjIxLjY5NCA3OS44ODUgMTYzLjExIDExMC4wNzkgMTA4LjEyOCAxNDQuOTQyQzIxMy42MiAxNzguMjk2IDMyMi43MzIgMjEyLjMzNyA0MTMuMDU2IDI3OC4zNjdDNDA3LjQ3NSAyODMuNjYgNDAxLjE0NiAyODguOTM0IDM5MS43MjggMjk2LjYyOUMzMTEuNjIzIDIyOC4wNjcgMjExLjE2MSAxOTkuOTMyIDc4Ljc5NjcgMjA3LjY4NlYzOTcuODMxQzkwLjQ5MzUgMzk4LjYzIDEwMi40NzEgMzk5LjQyNSAxMTMuOTY1IDM5OS4wNzVDMzExLjI5NSAzOTMuMDY4IDQ1MC44NTMgMjk3LjM5NSA1MjAuNDU3IDE0Mi43MVpNMTA4Ljg4MiA0NTQuODM1QzE2NC4yNSA0ODguODYyIDIyMS42ODggNTE5LjkyMyAyNzcuOTg4IDU1Mi4zOTNDMjY4Ljg3MyA1MDQuODQ5IDI2MS4xOSA0NjAuMDE4IDI1NC4xMSA0MTIuMTE5QzI2NC45ODIgNDA4LjQxOSAyNzcuNDM4IDQwMy4zMjkgMjg0LjUxMSA0MDAuNDA1QzI5Ny44NzQgNDU2LjI3NCAzMTguMDE5IDUwNy4wMjYgMzQ5LjExNiA1NTUuMDUyTDUxNi4yMjggNDU4LjA3MkM1MDIuMzc2IDQwNy42NzYgNDU5LjA2OCAzNjIuNzc3IDQyMy44MzcgMzI3LjIxN0M0MzIuODU0IDMyMS4wNjkgNDQxLjQyNiAzMTQuMzE4IDQ0OS45OCAzMDcuNTQ5QzQ4NS4zODcgMzM2LjYwNSA1MTguMjE1IDM2Ni40NTMgNTUyLjYwMiAzOTYuNjk0VjIwNS41OTZDNTM3Ljk2OSAyMTkuMDM4IDUxNS42MDEgMjM5LjM2MSA0ODkuNDQxIDI2Mi4zNzZDMzc5LjIxNSAzNTkuMzQ2IDM0MC45NDIgMzczLjE0NSAxMDguODgyIDQ1NC44MzVaIiBjbGlwLXJ1bGU9ImV2ZW5vZGQiIGZpbGwtcnVsZT0iZXZlbm9kZCIvPiYjeGE7PC9zdmc+;fontFamily=Georgia;fontSize=26;" vertex="1" parent="mVLcT5szOXLsrqpceEyi-161">
          <mxGeometry x="9.671917808219158" y="7.3048027314112085" width="103.2841098827405" height="142.39707181684904" as="geometry" />
        </mxCell>
        <UserObject label="&lt;font style=&quot;font-size: 19px;&quot;&gt;autoscaler-cluster-n&lt;/font&gt;" placeholders="1" id="mVLcT5szOXLsrqpceEyi-164">
          <mxCell style="text;html=1;strokeColor=none;fillColor=none;align=center;verticalAlign=middle;whiteSpace=wrap;overflow=hidden;fontColor=#B3B3B3;fontFamily=Georgia;fontSize=26;" vertex="1" parent="mVLcT5szOXLsrqpceEyi-161">
            <mxGeometry x="112.95999999999992" y="7.300000000000011" width="149.79" height="90" as="geometry" />
          </mxCell>
        </UserObject>
        <mxCell id="mVLcT5szOXLsrqpceEyi-165" value="" style="curved=1;endArrow=classic;html=1;rounded=0;exitX=0.91;exitY=0.026;exitDx=0;exitDy=0;exitPerimeter=0;entryX=-0.007;entryY=0.687;entryDx=0;entryDy=0;entryPerimeter=0;" edge="1" parent="1" source="mVLcT5szOXLsrqpceEyi-112" target="mVLcT5szOXLsrqpceEyi-154">
          <mxGeometry width="50" height="50" relative="1" as="geometry">
            <mxPoint x="440" y="-2270" as="sourcePoint" />
            <mxPoint x="570" y="-2510" as="targetPoint" />
            <Array as="points">
              <mxPoint x="420" y="-2340" />
              <mxPoint x="460" y="-2470" />
            </Array>
          </mxGeometry>
        </mxCell>
        <mxCell id="mVLcT5szOXLsrqpceEyi-166" value="" style="curved=1;endArrow=classic;html=1;rounded=0;entryX=0;entryY=0.25;entryDx=0;entryDy=0;exitX=0.911;exitY=-0.004;exitDx=0;exitDy=0;exitPerimeter=0;" edge="1" parent="1" source="mVLcT5szOXLsrqpceEyi-112" target="mVLcT5szOXLsrqpceEyi-158">
          <mxGeometry width="50" height="50" relative="1" as="geometry">
            <mxPoint x="420" y="-2260" as="sourcePoint" />
            <mxPoint x="580" y="-2500" as="targetPoint" />
            <Array as="points">
              <mxPoint x="420" y="-2340" />
              <mxPoint x="480" y="-2400" />
            </Array>
          </mxGeometry>
        </mxCell>
      </root>
    </mxGraphModel>
  </diagram>
</mxfile>
